<svg xmlns="http://www.w3.org/2000/svg" xmlns:xlink="http://www.w3.org/1999/xlink" width="1080" zoomAndPan="magnify" viewBox="0 0 810 809.999993" height="1080" preserveAspectRatio="xMidYMid meet" version="1.0"><path fill="#ffffff" d="M 12.929688 12.929688 L 797.070312 12.929688 L 797.070312 797.070312 L 12.929688 797.070312 Z M 12.929688 12.929688 " fill-opacity="1" fill-rule="nonzero"/><path fill="#d1d2d2" d="M 49.496094 47.644531 L 48.050781 601.910156 L 47.640625 760.484375 L 760.488281 762.351562 L 760.785156 647.585938 L 762.347656 49.503906 Z M 49.496094 47.644531 " fill-opacity="1" fill-rule="nonzero"/><path fill="#d1d2d2" d="M 786.171875 25.804688 L 784.195312 786.179688 L 23.824219 784.199219 L 25.804688 23.828125 L 786.171875 25.804688 M 810 2.101562 L 786.242188 2.039062 L 25.867188 0.0546875 L 2.101562 0 L 2.039062 23.765625 L 0.0585938 784.136719 L -0.00390625 807.898438 L 23.761719 807.957031 L 784.136719 809.929688 L 807.890625 809.996094 L 807.957031 786.238281 L 809.929688 25.867188 Z M 810 2.101562 " fill-opacity="1" fill-rule="nonzero"/><path fill="#717273" d="M 647.863281 588.292969 C 564.117188 552.953125 491.53125 523.15625 491.53125 523.15625 C 491.53125 523.15625 491.53125 485.96875 491.53125 459.902344 C 491.53125 433.832031 534.347656 405.898438 534.347656 297.953125 C 534.347656 194.175781 486.101562 137.046875 409.605469 132.710938 C 409.605469 132.609375 409.605469 132.40625 409.605469 132.308594 C 408.03125 132.308594 406.535156 132.464844 404.988281 132.519531 C 403.398438 132.46875 401.917969 132.308594 400.324219 132.308594 C 400.324219 132.40625 400.324219 132.609375 400.324219 132.710938 C 323.84375 137.046875 275.597656 194.175781 275.597656 297.953125 C 275.597656 405.898438 318.410156 433.835938 318.410156 459.902344 C 318.410156 485.953125 318.410156 523.15625 318.410156 523.15625 C 318.410156 523.15625 245.828125 552.953125 162.0625 588.292969 C 78.285156 623.707031 48.550781 673.914062 48.550781 701.863281 C 48.550781 729.78125 48.550781 759.542969 48.550781 759.542969 L 761.402344 759.542969 C 761.402344 759.542969 761.402344 729.78125 761.402344 701.863281 C 761.417969 673.917969 731.585938 623.707031 647.863281 588.292969 Z M 647.863281 588.292969 " fill-opacity="1" fill-rule="nonzero"/></svg>