<svg xmlns="http://www.w3.org/2000/svg" xmlns:xlink="http://www.w3.org/1999/xlink" width="1080" zoomAndPan="magnify" viewBox="0 0 810 809.999993" height="1080" preserveAspectRatio="xMidYMid meet" version="1.0"><path fill="#000000" d="M 691.378906 118.621094 C 614.886719 42.128906 513.183594 0 405 0 C 296.816406 0 195.113281 42.128906 118.621094 118.621094 C 42.128906 195.113281 0 296.824219 0 405 C 0 513.175781 42.128906 614.886719 118.621094 691.378906 C 195.113281 767.871094 296.816406 810 405 810 C 513.183594 810 614.886719 767.871094 691.378906 691.378906 C 767.871094 614.886719 810 513.183594 810 405 C 810 296.816406 767.871094 195.113281 691.378906 118.621094 Z M 691.378906 118.621094 " fill-opacity="1" fill-rule="nonzero"/><path fill="#b0b0b0" d="M 501.722656 212.640625 C 503.304688 214.222656 504.847656 215.84375 506.351562 217.5 C 507.855469 219.160156 509.316406 220.855469 510.738281 222.585938 C 512.15625 224.316406 513.535156 226.078125 514.867188 227.878906 C 516.203125 229.675781 517.492188 231.503906 518.734375 233.367188 C 519.976562 235.226562 521.175781 237.117188 522.324219 239.039062 C 523.476562 240.957031 524.578125 242.90625 525.636719 244.878906 C 526.691406 246.855469 527.695312 248.851562 528.652344 250.878906 C 529.609375 252.902344 530.515625 254.945312 531.375 257.015625 C 532.230469 259.082031 533.035156 261.171875 533.789062 263.277344 C 534.542969 265.386719 535.246094 267.511719 535.894531 269.652344 C 536.546875 271.796875 537.144531 273.953125 537.6875 276.125 C 538.230469 278.296875 538.722656 280.480469 539.15625 282.675781 C 539.59375 284.871094 539.976562 287.074219 540.304688 289.289062 C 540.632812 291.503906 540.90625 293.722656 541.128906 295.953125 C 541.347656 298.179688 541.511719 300.410156 541.621094 302.648438 C 541.730469 304.882812 541.785156 307.121094 541.785156 309.359375 C 541.785156 311.597656 541.730469 313.835938 541.621094 316.070312 C 541.511719 318.308594 541.347656 320.539062 541.128906 322.765625 C 540.90625 324.992188 540.632812 327.214844 540.304688 329.429688 C 539.976562 331.644531 539.59375 333.847656 539.15625 336.042969 C 538.722656 338.238281 538.230469 340.421875 537.6875 342.59375 C 537.144531 344.765625 536.546875 346.921875 535.894531 349.066406 C 535.246094 351.207031 534.542969 353.332031 533.789062 355.441406 C 533.035156 357.546875 532.230469 359.636719 531.375 361.703125 C 530.515625 363.773438 529.609375 365.816406 528.652344 367.839844 C 527.695312 369.863281 526.691406 371.863281 525.636719 373.839844 C 524.578125 375.8125 523.476562 377.757812 522.324219 379.679688 C 521.175781 381.601562 519.976562 383.492188 518.734375 385.351562 C 517.492188 387.214844 516.203125 389.042969 514.867188 390.839844 C 513.535156 392.640625 512.15625 394.402344 510.738281 396.132812 C 509.316406 397.863281 507.855469 399.558594 506.351562 401.21875 C 504.847656 402.875 503.304688 404.496094 501.722656 406.078125 C 500.140625 407.664062 498.519531 409.207031 496.859375 410.707031 C 495.203125 412.210938 493.507812 413.671875 491.777344 415.09375 C 490.046875 416.515625 488.28125 417.890625 486.484375 419.222656 C 484.6875 420.558594 482.855469 421.847656 480.996094 423.089844 C 479.132812 424.332031 477.242188 425.53125 475.324219 426.683594 C 473.402344 427.832031 471.457031 428.9375 469.480469 429.992188 C 467.507812 431.046875 465.507812 432.050781 463.484375 433.007812 C 461.460938 433.964844 459.414062 434.875 457.347656 435.730469 C 455.28125 436.585938 453.191406 437.390625 451.085938 438.144531 C 448.976562 438.902344 446.851562 439.601562 444.710938 440.253906 C 442.566406 440.902344 440.410156 441.5 438.238281 442.042969 C 436.066406 442.585938 433.882812 443.078125 431.6875 443.515625 C 429.492188 443.949219 427.289062 444.332031 425.074219 444.660156 C 422.859375 444.988281 420.636719 445.265625 418.410156 445.484375 C 416.183594 445.703125 413.949219 445.867188 411.714844 445.976562 C 409.480469 446.085938 407.242188 446.140625 405.003906 446.140625 C 402.765625 446.140625 400.527344 446.085938 398.292969 445.976562 C 396.054688 445.867188 393.824219 445.703125 391.597656 445.484375 C 389.367188 445.265625 387.148438 444.988281 384.933594 444.660156 C 382.71875 444.332031 380.515625 443.949219 378.316406 443.515625 C 376.121094 443.078125 373.9375 442.585938 371.769531 442.042969 C 369.597656 441.5 367.441406 440.902344 365.296875 440.253906 C 363.15625 439.601562 361.03125 438.902344 358.921875 438.144531 C 356.816406 437.390625 354.726562 436.585938 352.660156 435.730469 C 350.589844 434.875 348.542969 433.964844 346.519531 433.007812 C 344.496094 432.050781 342.5 431.046875 340.523438 429.992188 C 338.550781 428.9375 336.601562 427.832031 334.683594 426.683594 C 332.761719 425.53125 330.871094 424.332031 329.011719 423.089844 C 327.148438 421.847656 325.320312 420.558594 323.523438 419.222656 C 321.722656 417.890625 319.960938 416.515625 318.230469 415.09375 C 316.5 413.671875 314.804688 412.210938 313.144531 410.707031 C 311.488281 409.207031 309.867188 407.664062 308.285156 406.078125 C 306.699219 404.496094 305.15625 402.875 303.652344 401.21875 C 302.152344 399.558594 300.6875 397.863281 299.269531 396.132812 C 297.847656 394.402344 296.472656 392.640625 295.136719 390.839844 C 293.804688 389.042969 292.515625 387.214844 291.273438 385.351562 C 290.027344 383.492188 288.832031 381.601562 287.679688 379.679688 C 286.53125 377.757812 285.425781 375.8125 284.371094 373.839844 C 283.316406 371.863281 282.308594 369.863281 281.351562 367.839844 C 280.394531 365.816406 279.488281 363.773438 278.632812 361.703125 C 277.777344 359.636719 276.96875 357.546875 276.214844 355.441406 C 275.460938 353.332031 274.761719 351.207031 274.109375 349.066406 C 273.460938 346.921875 272.863281 344.765625 272.320312 342.59375 C 271.777344 340.421875 271.285156 338.238281 270.847656 336.042969 C 270.410156 333.847656 270.03125 331.644531 269.699219 329.429688 C 269.371094 327.214844 269.097656 324.996094 268.878906 322.765625 C 268.660156 320.539062 268.496094 318.308594 268.386719 316.070312 C 268.277344 313.835938 268.21875 311.597656 268.21875 309.359375 C 268.21875 307.121094 268.277344 304.882812 268.386719 302.648438 C 268.496094 300.410156 268.660156 298.179688 268.878906 295.953125 C 269.097656 293.722656 269.371094 291.503906 269.699219 289.289062 C 270.03125 287.074219 270.410156 284.871094 270.847656 282.675781 C 271.285156 280.480469 271.777344 278.296875 272.320312 276.125 C 272.863281 273.953125 273.460938 271.796875 274.109375 269.652344 C 274.761719 267.511719 275.460938 265.386719 276.214844 263.277344 C 276.96875 261.171875 277.777344 259.082031 278.632812 257.015625 C 279.488281 254.945312 280.394531 252.902344 281.351562 250.878906 C 282.308594 248.851562 283.316406 246.855469 284.371094 244.878906 C 285.425781 242.90625 286.53125 240.957031 287.679688 239.039062 C 288.832031 237.117188 290.027344 235.226562 291.273438 233.367188 C 292.515625 231.503906 293.804688 229.675781 295.136719 227.878906 C 296.472656 226.078125 297.847656 224.316406 299.269531 222.585938 C 300.6875 220.855469 302.152344 219.160156 303.652344 217.5 C 305.15625 215.84375 306.699219 214.222656 308.285156 212.640625 C 309.867188 211.054688 311.488281 209.511719 313.144531 208.011719 C 314.804688 206.507812 316.5 205.042969 318.230469 203.625 C 319.960938 202.203125 321.722656 200.828125 323.523438 199.496094 C 325.320312 198.160156 327.148438 196.871094 329.011719 195.628906 C 330.871094 194.386719 332.761719 193.1875 334.683594 192.035156 C 336.601562 190.886719 338.550781 189.78125 340.523438 188.726562 C 342.5 187.671875 344.496094 186.667969 346.519531 185.710938 C 348.542969 184.753906 350.589844 183.84375 352.660156 182.988281 C 354.726562 182.132812 356.816406 181.328125 358.921875 180.570312 C 361.03125 179.816406 363.15625 179.117188 365.296875 178.464844 C 367.441406 177.816406 369.597656 177.21875 371.769531 176.675781 C 373.9375 176.132812 376.121094 175.640625 378.316406 175.203125 C 380.515625 174.769531 382.71875 174.386719 384.933594 174.058594 C 387.148438 173.726562 389.367188 173.453125 391.597656 173.234375 C 393.824219 173.015625 396.054688 172.851562 398.292969 172.742188 C 400.527344 172.632812 402.765625 172.578125 405.003906 172.578125 C 407.242188 172.578125 409.480469 172.632812 411.714844 172.742188 C 413.949219 172.851562 416.183594 173.015625 418.410156 173.234375 C 420.636719 173.453125 422.859375 173.726562 425.074219 174.058594 C 427.289062 174.386719 429.492188 174.769531 431.6875 175.203125 C 433.882812 175.640625 436.066406 176.132812 438.238281 176.675781 C 440.410156 177.21875 442.566406 177.816406 444.710938 178.464844 C 446.851562 179.117188 448.976562 179.816406 451.085938 180.570312 C 453.191406 181.328125 455.28125 182.132812 457.347656 182.988281 C 459.417969 183.84375 461.460938 184.753906 463.484375 185.710938 C 465.507812 186.667969 467.507812 187.671875 469.480469 188.726562 C 471.457031 189.78125 473.402344 190.886719 475.324219 192.035156 C 477.242188 193.1875 479.132812 194.386719 480.996094 195.628906 C 482.855469 196.871094 484.6875 198.160156 486.484375 199.496094 C 488.28125 200.828125 490.046875 202.203125 491.777344 203.625 C 493.507812 205.042969 495.203125 206.507812 496.859375 208.011719 C 498.519531 209.511719 500.140625 211.054688 501.722656 212.640625 Z M 501.722656 212.640625 " fill-opacity="1" fill-rule="nonzero"/><path fill="#b0b0b0" d="M 408.957031 506.921875 L 401.050781 506.921875 C 289.289062 506.921875 195.167969 582.378906 166.804688 685.125 C 231.035156 739.824219 314.222656 772.890625 405 772.890625 C 495.777344 772.890625 578.964844 739.824219 643.195312 685.125 C 614.832031 582.386719 520.71875 506.921875 408.949219 506.921875 Z M 408.957031 506.921875 " fill-opacity="1" fill-rule="nonzero"/></svg>