<svg xmlns="http://www.w3.org/2000/svg" xmlns:xlink="http://www.w3.org/1999/xlink" width="1080" zoomAndPan="magnify" viewBox="0 0 810 809.999993" height="1080" preserveAspectRatio="xMidYMid meet" version="1.0"><path fill="#b0b0b0" d="M 336.921875 237.597656 L 336.921875 167.792969 C 336.921875 146.851562 312.488281 136.375 298.527344 150.335938 L 57.695312 366.738281 C 36.753906 384.1875 36.753906 419.085938 57.695312 436.542969 L 298.527344 659.917969 C 312.488281 673.886719 336.921875 663.414062 336.921875 642.472656 L 336.921875 551.726562 C 336.921875 524.722656 359.117188 502.851562 386.121094 502.863281 C 577.863281 502.921875 675.511719 555.246094 731.320312 607.570312 C 748.777344 621.53125 773.203125 604.074219 766.222656 583.132812 C 689.441406 394.660156 532.375 300.421875 385.785156 286.460938 C 357.863281 286.460938 336.921875 265.519531 336.921875 237.597656 " fill-opacity="1" fill-rule="nonzero"/></svg>