<svg width="84" height="111" viewBox="0 0 84 111" fill="none" xmlns="http://www.w3.org/2000/svg">
<path fill-rule="evenodd" clip-rule="evenodd" d="M84 36.5852C84 16.3797 65.196 0 42 0C18.804 0 0 16.3797 0 36.5852C0 43.6714 2.31315 50.2872 6.31765 55.8908C6.79357 56.5568 7.29339 57.2085 7.81605 57.845C7.86106 57.9471 7.91556 58.0478 7.98004 58.1461L24.8272 83.8271C25.617 85.031 27.382 85.031 28.1718 83.8271L34.2489 74.5634L36.9477 78.6772L39.4899 82.5525C40.6746 84.3584 43.322 84.3584 44.5068 82.5525L47.0507 78.6747L49.7485 74.5623L55.8263 83.8271C56.6161 85.031 58.3811 85.031 59.1709 83.8271L76.0181 58.1461C76.0815 58.0494 76.1353 57.9504 76.1799 57.8499C76.7034 57.2126 77.204 56.5601 77.6807 55.8932C81.6862 50.289 84 43.6724 84 36.5852ZM52.3843 72.0421C62.1207 69.8852 70.499 64.7655 76.1799 57.8499C76.7485 56.5685 75.8208 55.0491 74.3458 55.0491H56.9935C59.3796 55.0491 60.8107 57.6996 59.5019 59.6946L52.9425 69.6935L52.4852 71.6969C52.4584 71.8146 52.4246 71.9298 52.3843 72.0421ZM50.0302 74.1328L49.7485 74.5623L49.602 74.339L50.0302 74.1328ZM34.3965 74.3384L34.2489 74.5634L33.965 74.1305L34.3965 74.3384ZM31.6156 72.0421C21.8769 69.8846 13.497 64.763 7.81605 57.845C7.25202 56.5646 8.17918 55.0491 9.65231 55.0491H27.0031C24.6171 55.0491 23.1859 57.6996 24.4947 59.6946L31.0591 69.7011L31.5147 71.6969C31.5415 71.8146 31.5753 71.9298 31.6156 72.0421ZM26.1809 94.2474C24.4056 94.2474 22.9654 92.9929 22.9654 91.4449C22.9654 89.8985 24.4056 88.6439 26.1809 88.6439H57.8191C59.5162 88.6439 60.9071 89.7903 61.0264 91.2423C61.0319 91.3092 61.0347 91.3768 61.0347 91.4449C61.0347 91.5132 61.0319 91.5808 61.0264 91.6478C60.9071 93.101 59.5162 94.2474 57.8191 94.2474H26.1809ZM57.3263 97.4285C59.0523 97.4285 60.4615 98.6142 60.5385 100.101C60.5407 100.144 60.5419 100.187 60.5419 100.23C60.5419 100.273 60.5407 100.315 60.5385 100.358C60.4615 101.846 59.0523 103.031 57.3263 103.031H26.6737C24.8984 103.031 23.4581 101.777 23.4581 100.23C23.4581 98.6831 24.8984 97.4285 26.6737 97.4285H57.3263ZM47.0474 108.042C46.9538 106.568 45.5516 105.398 43.8368 105.398H40.1632C38.3879 105.398 36.9477 106.652 36.9477 108.199C36.9477 109.745 38.3879 111 40.1632 111H43.8368C45.5516 111 46.9538 109.83 47.0474 108.356C47.0507 108.304 47.0523 108.252 47.0523 108.199C47.0523 108.146 47.0507 108.094 47.0474 108.042Z" fill="url(#paint0_linear_28_1187)"/>
<mask id="mask0_28_1187" style="mask-type:luminance" maskUnits="userSpaceOnUse" x="0" y="0" width="83" height="77">
<path d="M83 0L-2.68221e-06 0L-2.68221e-06 77L83 77L83 0Z" fill="white"/>
</mask>
<g mask="url(#mask0_28_1187)">
<path d="M11.3529 63.3468C10.4209 62.3255 9.57367 61.1967 8.75469 60.041C5.93059 56.0634 4.0667 51.4138 3.27596 46.6298C2.45697 41.5503 2.8241 36.2826 4.51856 31.418C5.53523 28.5154 7.03199 25.7471 9.0371 23.2477C9.96905 22.0382 11.0422 20.9363 12.1154 19.8881C17.9047 14.3785 25.9534 10.9384 34.0585 10.159C42.5873 9.35272 51.7373 11.7178 58.4587 16.9049C63.3161 20.6944 66.6485 26.0159 68.23 31.7674C68.2865 31.9824 68.6819 33.7831 68.6819 33.7831C68.8231 34.67 68.9925 35.5569 69.0207 36.4707C69.9527 47.8661 63.3161 57.3803 52.4433 62.0298C40.1303 67.3513 28.2691 61.1429 23.2423 54.8271C18.5825 48.9412 18.2154 40.0452 22.1974 33.5681C27.2525 25.2634 41.8813 22.092 49.0262 29.8592C52.7258 34.0787 53.2623 40.4484 50.41 45.0979C48.179 48.8337 43.4627 50.8225 39.5373 49.9625C38.8877 49.8281 38.2947 49.6131 37.7581 49.3712C36.8261 48.9412 35.9789 48.0543 35.6683 47.0599C35.3011 45.7967 35.6683 44.1035 37.0521 43.5391C37.4192 43.3778 37.871 43.3778 38.2382 43.566C38.3229 43.6197 38.4076 43.6735 38.4076 43.7541C38.4359 43.8885 38.3229 43.996 38.2382 44.0497C37.6169 44.5335 37.1368 44.8829 37.0238 45.6892C36.8826 47.0599 38.1252 47.8393 39.3678 48.1349C40.6387 48.4574 41.9942 48.3499 43.2651 48.0812C44.9877 47.678 46.5128 46.7911 47.6989 45.5279C51.5114 41.5234 51.2855 34.5625 47.5294 30.5311C41.2035 24.0539 28.8622 26.7684 24.146 33.81L23.8071 34.3744C23.6376 34.6969 23.327 35.315 23.1575 35.6107C21.2654 40.099 21.2089 45.2054 23.1011 49.6937C25.0497 54.2358 28.721 57.4878 33.2395 59.6379C40.2715 62.9705 48.772 61.6536 55.0697 57.5147C66.4791 49.3443 70.2351 32.4662 61.0286 22.0651C47.0776 6.26197 18.5543 11.0459 8.64173 30.0742C2.99355 41.5234 6.72135 55.0152 16.408 63.1049C23.7224 69.2864 33.3807 72.9147 43.2651 72.8609C53.1211 72.7534 63.0054 68.8832 70.2916 62.4867C79.4981 54.397 82.9435 41.8728 79.8652 30.3967C78.1143 23.7583 73.9911 17.7918 68.5406 13.3573C64.6716 10.159 60.4355 7.76703 55.7475 5.83195C47.0493 2.7412 37.4192 2.7412 28.608 3.14434C26.9418 3.27872 25.1909 3.35935 24.3719 3.25185C23.7506 3.14434 23.92 2.7412 25.0214 2.31119C25.5863 2.09618 26.6029 1.77366 27.7043 1.47803C30.1613 0.833 32.6465 0.510484 35.1599 0.349231C40.6669 -0.000156468 45.9762 0.617995 51.116 1.85429C58.035 3.57436 64.1633 7.06826 69.4726 11.7716C69.4726 11.7716 71.986 14.0023 72.918 14.9967C78.8768 21.2051 82.3222 29.2948 82.7458 37.9489C82.9435 41.4696 82.5199 44.8829 81.5879 48.0812C77.5213 62.0298 63.6832 72.619 49.1392 75.9785C48.3767 76.1398 47.6424 76.3011 46.8516 76.4086C46.0891 76.5698 45.2984 76.6236 44.5077 76.7042C43.6887 76.7848 42.8697 76.8386 42.0507 76.8386C38.7465 76.9192 35.4423 76.5429 32.2229 75.7635C24.2589 73.8822 16.8316 69.5014 11.3529 63.3468Z" fill="#1C1C1C"/>
</g>
<defs>
<linearGradient id="paint0_linear_28_1187" x1="42" y1="0" x2="42" y2="111" gradientUnits="userSpaceOnUse">
<stop stop-color="#8A2BE2"/>
<stop offset="0.5" stop-color="#4169E1"/>
<stop offset="1" stop-color="#333333"/>
</linearGradient>
</defs>
</svg>
