<svg xmlns="http://www.w3.org/2000/svg" xmlns:xlink="http://www.w3.org/1999/xlink" width="1080" zoomAndPan="magnify" viewBox="0 0 810 809.999993" height="1080" preserveAspectRatio="xMidYMid meet" version="1.0"><defs><clipPath id="5fddc3ba0c"><path d="M 405 0 C 181.324219 0 0 181.324219 0 405 C 0 628.675781 181.324219 810 405 810 C 628.675781 810 810 628.675781 810 405 C 810 181.324219 628.675781 0 405 0 Z M 405 0 " clip-rule="nonzero"/></clipPath><clipPath id="c8047a8907"><path d="M 208.832031 84 L 600 84 L 600 729 L 208.832031 729 Z M 208.832031 84 " clip-rule="nonzero"/></clipPath></defs><g clip-path="url(#5fddc3ba0c)"><rect x="-81" width="972" fill="#8a2be2" y="-80.999999" height="971.999992" fill-opacity="1"/></g><g clip-path="url(#c8047a8907)"><path fill="#ffffff" d="M 564.007812 632.839844 C 566.257812 628.441406 567.382812 623.773438 567.375 618.832031 C 567.375 597.613281 547.082031 586.625 514.441406 580.832031 C 511.605469 574.875 508.074219 568.09375 504.171875 560.535156 C 504.171875 560.535156 507.621094 508.464844 525.636719 491.4375 C 534.917969 482.449219 543.460938 472.808594 551.269531 462.515625 C 574.152344 432.914062 601.164062 386.78125 599.398438 337.214844 C 597.898438 295.457031 578.179688 170.074219 486.421875 114.386719 C 485.746094 113.957031 484.984375 113.542969 484.367188 113.132812 C 484.0625 114.949219 483.636719 116.734375 483.09375 118.496094 C 482.75 119.886719 482.332031 121.253906 481.84375 122.601562 C 481.496094 123.804688 481.078125 124.984375 480.589844 126.136719 C 480.15625 127.308594 479.664062 128.558594 479.152344 129.8125 C 475.375 139.066406 470.625 147.789062 464.894531 155.980469 C 470.738281 159.203125 476.386719 162.734375 481.847656 166.570312 C 487.304688 170.40625 492.539062 174.527344 497.550781 178.929688 C 502.5625 183.332031 507.320312 187.996094 511.824219 192.917969 C 516.332031 197.835938 520.554688 202.988281 524.503906 208.367188 C 528.449219 213.746094 532.09375 219.324219 535.433594 225.097656 C 538.773438 230.875 541.792969 236.8125 544.488281 242.914062 C 547.183594 249.015625 549.542969 255.246094 551.5625 261.605469 C 553.582031 267.964844 555.25 274.414062 556.570312 280.953125 C 570.414062 347.546875 565.710938 395.59375 552.957031 434.003906 C 557.824219 411.019531 562.015625 388.054688 561.847656 356.421875 C 561.273438 242.871094 506.390625 184.410156 462.308594 159.414062 C 461.136719 160.851562 459.945312 162.269531 458.773438 163.625 C 457.089844 165.609375 455.253906 167.445312 453.269531 169.128906 C 452.378906 169.957031 451.425781 170.710938 450.414062 171.386719 C 449.503906 172.042969 448.554688 172.632812 447.558594 173.15625 C 446.636719 173.648438 445.628906 174.160156 444.703125 174.570312 C 443.8125 174.933594 442.894531 175.214844 441.953125 175.414062 C 440.484375 175.785156 439 175.902344 437.496094 175.761719 C 432.5 175.269531 427.800781 173.808594 423.402344 171.386719 C 426.625 171.417969 429.816406 171.121094 432.980469 170.507812 C 436.140625 169.890625 439.210938 168.964844 442.1875 167.730469 C 445.160156 166.496094 447.984375 164.972656 450.652344 163.167969 C 453.320312 161.363281 455.78125 159.3125 458.035156 157.007812 C 459.105469 156.035156 460.109375 155.003906 461.054688 153.90625 C 469.269531 144.929688 474.488281 134.1875 478.597656 126.320312 C 480.777344 121.9375 482.480469 117.378906 483.710938 112.640625 C 484.238281 110.710938 484.628906 108.75 484.882812 106.765625 C 484.554688 101.570312 482.355469 101.40625 478.84375 103.828125 C 477.34375 104.945312 475.921875 106.152344 474.570312 107.445312 C 429.15625 82.507812 399.964844 80.988281 403.3125 88.667969 C 405.488281 92.785156 407.140625 97.097656 408.261719 101.617188 C 409.382812 106.132812 409.945312 110.71875 409.949219 115.371094 C 410.078125 123.019531 409.769531 130.644531 409.023438 138.253906 L 409.867188 138.253906 C 414.074219 138.347656 418.238281 138.828125 422.355469 139.691406 C 420.589844 140.433594 418.925781 141.273438 417.160156 142.199219 C 396.617188 137.84375 379.917969 139.941406 364.164062 142.628906 C 342.347656 148.238281 327.085938 157.726562 323.863281 160.234375 C 318.746094 164.34375 303.730469 186.566406 290.8125 192.769531 C 277.890625 198.972656 231.058594 213.96875 231.570312 228.347656 C 231.980469 240.507812 225.53125 262.300781 227.113281 280.007812 C 227.324219 283.324219 227.941406 286.5625 228.960938 289.722656 C 230.730469 294.839844 235.332031 299.132812 241.289062 302.5625 C 252.6875 305.582031 274.585938 310.777344 281.710938 307.265625 C 291.53125 302.644531 306.957031 276.90625 314.167969 276.3125 C 321.375 275.714844 398.796875 289.230469 416.316406 282.019531 C 433.839844 274.8125 444.171875 247.449219 446.757812 240.242188 C 442.648438 263.472656 434.949219 280.582031 416.914062 286.785156 C 398.878906 292.992188 376.652344 288.71875 376.652344 288.71875 C 367.839844 354.738281 303.855469 374.351562 270.3125 415.621094 C 236.769531 456.886719 252.769531 524.980469 274.421875 552.320312 C 277.609375 556.285156 281.300781 559.707031 285.492188 562.589844 C 281.957031 569.328125 278.855469 575.488281 276.351562 580.832031 C 243.628906 586.539062 223.335938 597.53125 223.335938 618.75 C 223.328125 623.691406 224.449219 628.359375 226.703125 632.757812 C 215.199219 637.359375 208.832031 642.472656 208.832031 647.9375 L 208.832031 686.082031 C 208.832031 697.257812 235.535156 709.417969 277.523438 717.878906 C 296.019531 721.554688 314.664062 724.210938 333.453125 725.851562 C 352.824219 727.699219 373.632812 728.703125 395.363281 728.703125 C 424.785156 728.753906 454.078125 726.824219 483.238281 722.914062 C 541.964844 714.859375 581.835938 699.761719 581.835938 686.082031 L 581.835938 648.019531 C 581.792969 642.636719 575.425781 637.441406 564.007812 632.839844 Z M 240.117188 249.566406 C 233.398438 244.347656 240.117188 240.242188 244.738281 236.132812 C 249.359375 232.023438 250.511719 224.402344 255.007812 225.574219 C 266.859375 228.675781 246.75 254.679688 240.117188 249.566406 Z M 356.109375 190.675781 C 349.949219 191.519531 340.582031 191.355469 336.308594 188.417969 C 332.039062 185.480469 333.042969 180.199219 334.976562 177.34375 C 338.078125 172.824219 343.519531 176.769531 349.148438 180.363281 C 356.195312 184.902344 362.890625 189.832031 356.109375 190.675781 Z M 422.457031 143.207031 C 424.144531 142.382812 425.910156 141.542969 427.757812 140.78125 C 439.324219 135.667969 452.570312 131.3125 451.402344 133.324219 C 450.558594 134.742188 445.03125 139.261719 438.398438 144.046875 C 437.144531 145.054688 435.890625 145.980469 434.535156 146.902344 C 425.746094 153.1875 416.253906 159.226562 413.832031 159.226562 C 409.210938 159.226562 407.195312 156.640625 411.570312 150.003906 C 412.722656 148.238281 417.078125 145.8125 422.457031 143.207031 Z M 270.457031 597.613281 C 270.457031 597.367188 270.457031 597.179688 270.457031 597.015625 C 270.609375 597.402344 270.808594 597.765625 271.050781 598.105469 C 271.238281 598.519531 271.457031 598.917969 271.707031 599.296875 C 272.34375 600.25 273.027344 601.167969 273.761719 602.050781 C 274.222656 602.679688 274.730469 603.269531 275.28125 603.816406 C 275.859375 604.410156 276.371094 604.90625 277.027344 605.5 C 277.183594 605.65625 277.355469 605.792969 277.542969 605.910156 C 277.972656 606.40625 278.445312 606.855469 278.960938 607.265625 L 281.011719 608.765625 C 281.890625 609.476562 282.816406 610.121094 283.785156 610.695312 C 284.546875 611.191406 285.308594 611.621094 286.148438 612.113281 C 287.402344 612.875 288.820312 613.632812 290.257812 614.394531 C 291.34375 614.886719 292.515625 615.484375 293.6875 615.976562 L 295.742188 616.902344 C 295.851562 616.863281 295.960938 616.863281 296.070312 616.902344 L 297.507812 617.578125 L 300.179688 618.585938 C 303.28125 619.671875 306.566406 620.761719 310.078125 621.769531 C 312.257812 622.445312 314.617188 623.105469 316.960938 623.617188 L 317.964844 623.863281 C 318.808594 624.109375 319.652344 624.273438 320.492188 624.460938 C 321.335938 624.644531 322.238281 624.871094 323.164062 625.035156 C 323.605469 625.191406 324.058594 625.304688 324.519531 625.382812 C 325.09375 625.382812 325.773438 625.628906 326.347656 625.710938 C 327.519531 625.957031 328.628906 626.207031 329.796875 626.390625 L 332.386719 626.882812 C 335.917969 627.480469 339.515625 628.054688 343.375 628.566406 C 344.464844 628.566406 345.429688 628.8125 346.558594 628.976562 C 349.742188 629.390625 353.03125 629.738281 356.460938 630.066406 C 359.890625 630.394531 363.339844 630.664062 366.9375 630.910156 L 373.570312 631.402344 C 375.832031 631.503906 378.109375 631.667969 380.371094 631.75 C 382.085938 632.085938 383.820312 632.253906 385.566406 632.246094 C 388.832031 632.246094 392.097656 632.246094 395.304688 632.246094 C 398.507812 632.246094 401.753906 632.246094 405.019531 632.246094 C 406.769531 632.253906 408.5 632.085938 410.214844 631.75 C 426.621094 631.195312 442.917969 629.558594 459.105469 626.84375 C 460.601562 626.597656 462.125 626.328125 463.621094 626 L 466.046875 625.507812 L 467.15625 625.238281 C 469.074219 624.917969 470.96875 624.5 472.84375 623.988281 C 475.453125 623.390625 477.960938 622.734375 480.324219 622.054688 L 482.664062 621.296875 C 484.246094 620.886719 485.765625 620.371094 487.183594 619.878906 C 488.601562 619.386719 489.464844 619.117188 490.550781 618.707031 C 491.640625 618.296875 492.296875 618.03125 493.140625 617.703125 L 493.570312 617.539062 C 494.578125 617.105469 495.625 616.695312 496.507812 616.265625 C 498.441406 615.421875 500.269531 614.519531 501.953125 613.59375 C 504.355469 612.335938 506.648438 610.90625 508.832031 609.300781 C 509.546875 608.839844 510.230469 608.339844 510.886719 607.800781 C 511.566406 607.371094 512.183594 606.863281 512.734375 606.28125 C 513.3125 605.789062 513.824219 605.273438 514.316406 604.78125 C 514.8125 604.289062 515.160156 603.9375 515.589844 603.527344 C 516.273438 602.796875 516.882812 602.007812 517.417969 601.167969 C 517.785156 600.820312 518.09375 600.429688 518.34375 599.996094 C 518.960938 599.046875 519.523438 598.070312 520.027344 597.058594 L 520.027344 597.488281 C 518.9375 605.378906 513.148438 612.667969 502.507812 618.953125 C 485.046875 629.226562 454.605469 636.476562 409.90625 638.488281 C 408.226562 638.878906 406.519531 639.050781 404.792969 639.003906 C 401.527344 639.003906 398.34375 639.003906 395.160156 639.003906 C 391.976562 639.003906 388.769531 639.003906 385.503906 639.003906 C 383.804688 639.054688 382.128906 638.882812 380.472656 638.488281 C 375.851562 638.324219 371.414062 638.078125 367.222656 637.75 C 350.894531 636.695312 334.765625 634.3125 318.828125 630.601562 C 316.136719 629.945312 313.550781 629.265625 311.105469 628.546875 C 302.941406 626.320312 295.171875 623.136719 287.792969 618.996094 C 277.355469 612.710938 271.566406 605.335938 270.457031 597.613281 Z M 562.652344 665.210938 C 560.042969 666.300781 557.207031 667.472656 554.085938 668.644531 C 553.933594 668.734375 553.769531 668.789062 553.59375 668.808594 C 551.25 669.648438 548.804688 670.492188 546.300781 671.332031 C 542.601562 672.585938 538.578125 673.757812 534.304688 674.847656 C 533.296875 675.113281 532.25 675.359375 531.285156 675.6875 L 530.277344 675.933594 C 524.648438 677.371094 518.691406 678.742188 512.40625 680.042969 C 501.847656 682.097656 490.347656 683.988281 478.105469 685.589844 C 450.652344 689.03125 423.09375 690.738281 395.425781 690.703125 C 389.386719 690.703125 383.429688 690.621094 377.554688 690.457031 C 371.597656 690.273438 365.804688 690.027344 360.117188 689.78125 C 346.027344 689.101562 332.425781 687.929688 319.609375 686.429688 C 316.835938 686.164062 314.144531 685.835938 311.558594 685.507812 C 308.96875 685.179688 306.527344 684.828125 304.082031 684.417969 C 301.636719 684.007812 299.210938 683.742188 296.789062 683.328125 L 287.648438 681.808594 C 284.792969 681.316406 282.101562 680.804688 279.433594 680.207031 C 272.796875 678.953125 266.511719 677.539062 260.636719 676.097656 C 257.863281 675.441406 255.195312 674.683594 252.667969 674.046875 C 238.84375 670.101562 227.855469 665.828125 220.292969 661.308594 C 219.414062 660.847656 218.578125 660.3125 217.789062 659.707031 C 216.882812 659.078125 216.019531 658.390625 215.199219 657.652344 C 214.609375 657.226562 214.054688 656.753906 213.535156 656.234375 C 212.957031 655.75 212.421875 655.214844 211.933594 654.632812 C 211.546875 654.230469 211.210938 653.785156 210.929688 653.300781 C 224.421875 669.730469 301.84375 686.84375 395.363281 686.84375 C 423.011719 686.929688 450.570312 685.417969 478.042969 682.304688 C 531.902344 676.140625 570.96875 664.515625 579.945312 653.113281 C 577.171875 657.242188 571.132812 661.269531 562.589844 665.210938 Z M 562.652344 665.210938 " fill-opacity="1" fill-rule="nonzero"/></g></svg>