<svg xmlns="http://www.w3.org/2000/svg" xmlns:xlink="http://www.w3.org/1999/xlink" width="1080" zoomAndPan="magnify" viewBox="0 0 810 809.999993" height="1080" preserveAspectRatio="xMidYMid meet" version="1.0"><defs><clipPath id="bd0f249af8"><path d="M 362.222656 580.019531 L 506 580.019531 L 506 808.765625 L 362.222656 808.765625 Z M 362.222656 580.019531 " clip-rule="nonzero"/></clipPath><clipPath id="4273463ed8"><path d="M 550.261719 123.355469 L 712.097656 123.355469 L 712.097656 352.722656 L 550.261719 352.722656 Z M 550.261719 123.355469 " clip-rule="nonzero"/></clipPath></defs><path fill="#8a2be2" d="M 313.550781 797.882812 C 308.878906 797.882812 304.246094 795.890625 301.007812 792.03125 C 295.210938 785.105469 296.125 774.796875 303.050781 768.996094 C 381.410156 703.394531 428.417969 614.824219 432.019531 525.988281 C 433.375 492.554688 425.417969 465.28125 418.691406 452.238281 C 415.941406 462.699219 412.800781 484.363281 414.308594 527.289062 C 416.835938 598.941406 371.457031 676.300781 275.582031 763.796875 C 268.90625 769.882812 258.558594 769.414062 252.480469 762.738281 C 246.394531 756.0625 246.863281 745.734375 253.539062 739.636719 C 341.898438 659.011719 383.808594 589.925781 381.636719 528.433594 C 378.601562 442.503906 392.226562 423.203125 404.429688 415.996094 C 412.371094 411.296875 421.679688 411.46875 429.984375 416.421875 C 453.941406 430.742188 466.445312 484.054688 464.695312 527.3125 C 460.714844 625.335938 409.449219 722.566406 324.035156 794.074219 C 320.976562 796.632812 317.253906 797.882812 313.550781 797.882812 " fill-opacity="1" fill-rule="nonzero"/><path fill="#8a2be2" d="M 223.695312 724.109375 C 219.757812 724.109375 215.8125 722.6875 212.671875 719.824219 C 206.003906 713.726562 205.542969 703.386719 211.636719 696.722656 L 224.457031 682.742188 C 285.832031 615.875 316.640625 582.3125 324.496094 517.949219 C 325.59375 508.980469 333.753906 502.597656 342.707031 503.703125 C 351.671875 504.792969 358.050781 512.945312 356.953125 521.914062 C 347.832031 596.6875 310.460938 637.402344 248.542969 704.855469 L 235.765625 718.789062 C 232.542969 722.316406 228.128906 724.109375 223.695312 724.109375 " fill-opacity="1" fill-rule="nonzero"/><path fill="#8a2be2" d="M 498.894531 555.917969 C 498.53125 555.917969 498.175781 555.902344 497.8125 555.886719 C 488.804688 555.296875 481.976562 547.523438 482.554688 538.507812 C 482.910156 533.050781 483.066406 527.699219 483.007812 522.597656 C 482.289062 456.273438 465.046875 427.59375 451.207031 404.550781 C 437.476562 381.683594 419.5 370.027344 404.140625 373.941406 C 387.253906 378.242188 366.664062 404.4375 364.199219 464.09375 C 363.828125 473.117188 356.136719 480.140625 347.195312 479.761719 C 338.167969 479.390625 331.164062 471.769531 331.535156 462.746094 C 334.253906 396.914062 358.375 351.867188 396.058594 342.253906 C 425.957031 334.640625 457.777344 351.96875 479.117188 387.519531 C 494.277344 412.75 514.882812 447.046875 515.707031 522.242188 C 515.769531 528.175781 515.59375 534.351562 515.183594 540.621094 C 514.625 549.273438 507.433594 555.917969 498.894531 555.917969 " fill-opacity="1" fill-rule="nonzero"/><g clip-path="url(#bd0f249af8)"><path fill="#8a2be2" d="M 378.84375 808.765625 C 374.523438 808.765625 370.207031 807.0625 366.992188 803.679688 C 360.769531 797.132812 361.035156 786.777344 367.582031 780.5625 C 417.34375 733.277344 456.039062 664.941406 473.773438 593.082031 C 475.929688 584.316406 484.800781 578.964844 493.566406 581.125 C 502.324219 583.289062 507.683594 592.144531 505.519531 600.917969 C 486.332031 678.679688 444.273438 752.796875 390.101562 804.269531 C 386.945312 807.269531 382.886719 808.765625 378.84375 808.765625 " fill-opacity="1" fill-rule="nonzero"/></g><path fill="#8a2be2" d="M 186.726562 666.265625 C 182.335938 666.265625 177.960938 664.515625 174.742188 661.035156 C 168.597656 654.417969 168.988281 644.078125 175.605469 637.933594 C 262.472656 557.339844 271.707031 494.136719 282.394531 420.960938 C 285.015625 402.976562 287.730469 384.386719 291.652344 364.789062 C 299.207031 327.027344 319.574219 297.566406 348.992188 281.820312 C 377.027344 266.820312 411.363281 265.722656 443.183594 278.839844 C 451.527344 282.269531 455.507812 291.835938 452.070312 300.183594 C 448.640625 308.527344 439.082031 312.507812 430.726562 309.070312 C 407.644531 299.5625 384.097656 300.125 364.417969 310.652344 C 343.769531 321.703125 329.316406 343.203125 323.714844 371.199219 C 319.96875 389.957031 317.3125 408.117188 314.746094 425.679688 C 303.648438 501.683594 293.160156 573.464844 197.84375 661.90625 C 194.695312 664.820312 190.707031 666.265625 186.726562 666.265625 " fill-opacity="1" fill-rule="nonzero"/><path fill="#8a2be2" d="M 452.511719 793.695312 C 448.269531 793.695312 444.015625 792.039062 440.808594 788.753906 C 434.503906 782.289062 434.644531 771.941406 441.109375 765.636719 C 498.28125 709.925781 529.75 634.398438 534.644531 541.15625 C 539.324219 451.808594 516.859375 407.238281 489.265625 362.179688 C 481.191406 348.992188 479.078125 346.011719 470.625 338.09375 C 464.03125 331.929688 463.691406 321.582031 469.859375 314.984375 C 476.035156 308.390625 486.375 308.058594 492.96875 314.226562 C 504.375 324.898438 508.222656 330.515625 517.152344 345.109375 C 546.523438 393.0625 572.457031 444.277344 567.292969 542.867188 C 561.964844 644.585938 527.183594 727.417969 463.925781 789.054688 C 460.746094 792.152344 456.628906 793.695312 452.511719 793.695312 " fill-opacity="1" fill-rule="nonzero"/><path fill="#8a2be2" d="M 152.367188 586.121094 C 147.105469 586.121094 141.945312 583.597656 138.78125 578.90625 C 133.746094 571.40625 135.730469 561.246094 143.222656 556.207031 C 195.4375 521.089844 211.9375 464.957031 226.738281 400.601562 C 228.765625 391.796875 237.523438 386.308594 246.335938 388.332031 C 255.136719 390.359375 260.632812 399.132812 258.605469 407.933594 C 242.828125 476.558594 223.519531 541.605469 161.472656 583.335938 C 158.679688 585.226562 155.507812 586.121094 152.367188 586.121094 " fill-opacity="1" fill-rule="nonzero"/><path fill="#8a2be2" d="M 588.207031 421.992188 C 580.835938 421.992188 574.144531 416.972656 572.335938 409.488281 C 560.804688 361.957031 544.886719 330.476562 515.5625 297.21875 C 474.679688 250.839844 418.46875 226.890625 368.898438 234.746094 C 332.714844 240.46875 304.738281 262.164062 290.144531 295.847656 C 283.621094 310.886719 277.953125 327.957031 272.3125 349.589844 C 270.035156 358.324219 261.09375 363.5625 252.367188 361.285156 C 243.625 359 238.394531 350.074219 240.671875 341.332031 C 246.75 318.035156 252.941406 299.457031 260.140625 282.84375 C 279.070312 239.175781 316.84375 209.867188 363.796875 202.441406 C 425.230469 192.730469 491.144531 220.078125 540.089844 275.597656 C 572.832031 312.726562 591.378906 349.289062 604.109375 401.78125 C 606.238281 410.554688 600.847656 419.402344 592.074219 421.523438 C 590.78125 421.839844 589.480469 421.992188 588.207031 421.992188 " fill-opacity="1" fill-rule="nonzero"/><path fill="#8a2be2" d="M 576.398438 703.292969 C 574.46875 703.292969 572.492188 702.945312 570.570312 702.21875 C 562.136719 698.988281 557.90625 689.546875 561.132812 681.101562 C 594.097656 594.777344 595.503906 551.089844 586.171875 485.832031 C 585.132812 478.617188 584.097656 471.664062 583.039062 464.964844 C 581.636719 456.054688 587.722656 447.675781 596.640625 446.273438 C 605.5625 444.867188 613.929688 450.953125 615.34375 459.875 C 616.417969 466.710938 617.476562 473.804688 618.539062 481.191406 C 628.492188 550.824219 627.007812 600.25 591.675781 692.773438 C 589.183594 699.289062 582.984375 703.292969 576.398438 703.292969 " fill-opacity="1" fill-rule="nonzero"/><path fill="#8a2be2" d="M 145.222656 484.234375 C 141.21875 484.234375 137.207031 482.773438 134.058594 479.828125 C 127.464844 473.660156 127.117188 463.3125 133.285156 456.71875 C 161.328125 426.730469 166.429688 395.777344 172.886719 356.59375 C 177.792969 326.8125 183.355469 293.046875 199.8125 253.277344 C 218.546875 208.003906 254.199219 172.199219 300.207031 152.445312 C 308.5 148.886719 318.113281 152.71875 321.679688 161.019531 C 325.238281 169.316406 321.40625 178.929688 313.105469 182.488281 C 274.984375 198.859375 245.480469 228.441406 230.023438 265.78125 C 215.011719 302.070312 209.765625 333.867188 205.148438 361.914062 C 198.375 403.007812 191.976562 441.824219 157.167969 479.050781 C 153.949219 482.488281 149.589844 484.234375 145.222656 484.234375 " fill-opacity="1" fill-rule="nonzero"/><path fill="#8a2be2" d="M 595.542969 277.03125 C 590.371094 277.03125 585.285156 274.578125 582.105469 270.011719 C 555.703125 232.03125 520.023438 204.410156 473.039062 185.5625 C 427.78125 167.425781 393.808594 162.171875 359.445312 168.007812 C 350.535156 169.519531 342.101562 163.527344 340.589844 154.625 C 339.082031 145.722656 345.070312 137.28125 353.972656 135.769531 C 394.171875 128.949219 434.644531 134.945312 485.203125 155.214844 C 538.316406 176.507812 578.796875 207.957031 608.960938 251.347656 C 614.109375 258.757812 612.277344 268.953125 604.867188 274.101562 C 602.015625 276.082031 598.765625 277.03125 595.542969 277.03125 " fill-opacity="1" fill-rule="nonzero"/><path fill="#8a2be2" d="M 656.800781 609.53125 C 656 609.53125 655.203125 609.472656 654.402344 609.359375 C 645.46875 608.046875 639.292969 599.746094 640.601562 590.8125 C 657.738281 473.878906 644.363281 429.863281 624.117188 363.230469 L 621.488281 354.5625 C 617.183594 340.300781 612.21875 326.761719 606.730469 314.316406 C 603.089844 306.058594 606.835938 296.40625 615.09375 292.757812 C 623.34375 289.117188 633.003906 292.851562 636.652344 301.117188 C 642.675781 314.785156 648.105469 329.578125 652.789062 345.101562 L 655.402344 353.722656 C 676.15625 422.023438 691.152344 471.375 672.953125 595.558594 C 671.757812 603.679688 664.773438 609.53125 656.800781 609.53125 " fill-opacity="1" fill-rule="nonzero"/><path fill="#8a2be2" d="M 116.15625 394.902344 C 114.710938 394.902344 113.25 394.710938 111.789062 394.304688 C 103.089844 391.902344 97.988281 382.894531 100.394531 374.191406 C 103.25 363.851562 105.980469 351.179688 108.875 337.75 C 119.878906 286.671875 134.941406 216.714844 179.664062 170.960938 C 185.976562 164.503906 196.324219 164.382812 202.78125 170.695312 C 209.242188 177.007812 209.351562 187.363281 203.042969 193.820312 C 164.917969 232.816406 151.566406 294.816406 140.839844 344.632812 C 137.847656 358.53125 135.011719 371.65625 131.90625 382.910156 C 129.902344 390.148438 123.324219 394.902344 116.15625 394.902344 " fill-opacity="1" fill-rule="nonzero"/><path fill="#8a2be2" d="M 230.558594 159.6875 C 225.890625 159.6875 221.265625 157.699219 218.03125 153.859375 C 212.21875 146.941406 213.113281 136.632812 220.023438 130.820312 C 272.820312 86.445312 343.351562 62.429688 408.683594 66.59375 C 447.589844 69.066406 489.933594 80.339844 527.917969 98.332031 C 536.078125 102.199219 539.558594 111.949219 535.691406 120.109375 C 531.824219 128.261719 522.066406 131.742188 513.914062 127.882812 C 479.59375 111.621094 441.480469 101.449219 406.609375 99.230469 C 349.453125 95.582031 287.578125 116.761719 241.066406 155.851562 C 238.007812 158.425781 234.269531 159.6875 230.558594 159.6875 " fill-opacity="1" fill-rule="nonzero"/><g clip-path="url(#4273463ed8)"><path fill="#8a2be2" d="M 695.722656 352.535156 C 688.320312 352.535156 681.613281 347.472656 679.828125 339.960938 C 659.285156 253.351562 620.710938 194.21875 558.4375 153.851562 C 550.859375 148.933594 548.695312 138.8125 553.613281 131.234375 C 558.527344 123.664062 568.648438 121.5 576.226562 126.414062 C 646.007812 171.640625 689.03125 237.101562 711.648438 332.414062 C 713.730469 341.195312 708.296875 350.007812 699.515625 352.089844 C 698.242188 352.390625 696.972656 352.535156 695.722656 352.535156 " fill-opacity="1" fill-rule="nonzero"/></g><path fill="#8a2be2" d="M 211.894531 96.878906 C 206.898438 96.878906 201.976562 94.605469 198.761719 90.292969 C 193.371094 83.046875 194.878906 72.800781 202.121094 67.417969 C 258.550781 25.429688 322.65625 2.617188 387.519531 1.449219 C 396.664062 1.191406 404.003906 8.472656 404.164062 17.496094 C 404.324219 26.527344 397.140625 33.976562 388.109375 34.140625 C 330.121094 35.1875 272.554688 55.761719 221.636719 93.652344 C 218.707031 95.832031 215.285156 96.878906 211.894531 96.878906 " fill-opacity="1" fill-rule="nonzero"/><path fill="#8a2be2" d="M 637.378906 131.539062 C 633.027344 131.539062 628.6875 129.8125 625.472656 126.398438 C 578.84375 76.855469 508.386719 42.710938 436.984375 35.042969 C 428.007812 34.082031 421.511719 26.019531 422.46875 17.042969 C 423.429688 8.066406 431.496094 1.570312 440.46875 2.53125 C 519.402344 11.003906 597.464844 48.925781 649.285156 103.992188 C 655.46875 110.5625 655.152344 120.910156 648.582031 127.101562 C 645.425781 130.0625 641.398438 131.539062 637.378906 131.539062 " fill-opacity="1" fill-rule="nonzero"/></svg>