<svg xmlns="http://www.w3.org/2000/svg" width="390" height="48" fill="none" xmlns:v="https://vecta.io/nano"><path d="M390 47.647H0c0-14.494 0-21.741 3.962-27.288 3.566-4.993 9.308-9.046 16.381-11.563 1.387-.494 3.488-.9 6.008-1.235a37.07 37.07 0 0 1 7.005-1.382C35.174 6 37.331 6 41.647 6H59c103.146 44.51 162.733 44.378 272 0h17.353c4.316 0 6.473 0 8.291.18a37.06 37.06 0 0 1 7.005 1.382c2.521.335 4.622.741 6.009 1.235 7.072 2.517 12.814 6.57 16.38 11.563C390 25.906 390 33.153 390 47.647z" fill="url(#B)"/><path d="M0 47.647h390c0-14.494 0-21.741-3.962-27.288-3.566-4.993-9.308-9.046-16.38-11.563-1.387-.494-3.488-.9-6.009-1.235-2.251-.675-4.594-1.143-7.005-1.382-1.818-.18-3.975-.18-8.291-.18H331C227.854 50.51 168.267 50.378 59 6H41.647c-4.316 0-6.474 0-8.291.18a37.07 37.07 0 0 0-7.005 1.382c-2.52.335-4.622.741-6.008 1.235-7.073 2.517-12.815 6.57-16.381 11.563C0 25.906 0 33.153 0 47.647z" fill="url(#C)"/><mask id="A" maskUnits="userSpaceOnUse" x="334" y="12" width="22" height="25" fill="#000"><path fill="#fff" d="M334 12h22v25h-22z"/><path fill-rule="evenodd" d="M347.634 17.213L344.278 13c-.486.993-.957 2.745-.28 4.01-.329.032-.643.091-.886.196-1.549.669-3.25 2.399-4.086 5.998-.242 1.042-.678 1.541-1.195 2.134-.489.559-1.05 1.203-1.591 2.464-1.115 2.599 1.893 5.198 4.086 2.838 1.233-1.327 2.311-1.875 3.216-2.335 1.302-.662 2.425-.946 2.958-3.305.254 1.101-.026 3.501-2.462 5.086s-2.943 4.923-2.893 5.914H355c0-9.404-1.157-17.529-7.366-18.787z"/></mask><path fill-rule="evenodd" d="M347.634 17.213L344.278 13c-.486.993-.957 2.745-.28 4.01-.329.032-.643.091-.886.196-1.549.669-3.25 2.399-4.086 5.998-.242 1.042-.678 1.541-1.195 2.134-.489.559-1.05 1.203-1.591 2.464-1.115 2.599 1.893 5.198 4.086 2.838 1.233-1.327 2.311-1.875 3.216-2.335 1.302-.662 2.425-.946 2.958-3.305.254 1.101-.026 3.501-2.462 5.086s-2.943 4.923-2.893 5.914H355c0-9.404-1.157-17.529-7.366-18.787z" fill="#e6e6fa"/><path d="M344.278 13l.782-.623a1 1 0 0 0-.891-.371c-.341.037-.639.246-.789.555l.898.44zm3.356 4.213l-.783.623c.147.184.354.31.584.357l.199-.98zm-3.636-.204l.095.995a1 1 0 0 0 .787-1.467l-.882.472zm-.886.196l.397.918h0l-.397-.918zm-4.086 5.998l.974.226h0l-.974-.226zm-1.195 2.134l-.754-.658h0l.754.658zm-1.591 2.464l-.919-.394h0l.919.394zm4.086 2.838l.733.681h0l-.733-.681zm3.216-2.335l-.453-.892h0l.453.892zM346.5 25l.974-.225a1 1 0 0 0-1.949.004l.975.221zm-5.355 11l-.998.051a1 1 0 0 0 .998.949v-1zM355 36v1a1 1 0 0 0 1-1h-1zm-11.504-22.377l3.355 4.213 1.565-1.246-3.356-4.213-1.564 1.246zm1.384 2.915c-.204-.381-.265-.901-.187-1.506a5.37 5.37 0 0 1 .483-1.592l-1.796-.879c-.283.578-.56 1.369-.67 2.213-.109.836-.067 1.824.406 2.708l1.764-.944zm-.977-.524c-.37.035-.804.108-1.187.274l.793 1.836c.103-.044.297-.091.584-.119l-.19-1.991zm-1.187.274c-1.91.825-3.775 2.863-4.664 6.69l1.948.453c.783-3.371 2.319-4.792 3.509-5.306l-.793-1.836zm-4.664 6.69c-.184.791-.479 1.135-.975 1.703l1.507 1.315c.54-.618 1.116-1.272 1.416-2.566l-1.948-.453zm-.975 1.703c-.512.587-1.154 1.323-1.756 2.728l1.838.788c.48-1.119.96-1.669 1.425-2.201l-1.507-1.315zm-1.756 2.728c-.748 1.744-.115 3.525 1.113 4.467.62.475 1.409.75 2.255.68.855-.071 1.676-.487 2.37-1.234l-1.465-1.361c-.403.434-.78.578-1.071.602-.3.025-.604-.069-.872-.274-.545-.418-.858-1.236-.492-2.091l-1.838-.788zm5.738 3.912c1.11-1.195 2.06-1.679 2.936-2.124l-.906-1.783c-.933.475-2.14 1.087-3.495 2.546l1.465 1.361zm2.936-2.124c.536-.273 1.339-.598 1.975-1.157.705-.621 1.205-1.489 1.505-2.819l-1.95-.441c-.233 1.029-.562 1.482-.876 1.759-.385.338-.794.486-1.56.875l.906 1.783zm1.531-3.972c.171.744.007 2.696-2.033 4.023l1.09 1.676c2.832-1.842 3.227-4.692 2.891-6.149l-1.948.449zm-2.033 4.023c-1.462.951-2.304 2.397-2.772 3.673-.466 1.267-.607 2.483-.574 3.13l1.997-.102c-.018-.344.069-1.291.454-2.338.381-1.037 1.011-2.052 1.985-2.686l-1.09-1.676zM341.145 37H355v-2h-13.855v2zM356 36c0-4.715-.286-9.229-1.401-12.75-1.123-3.544-3.163-6.287-6.767-7.017l-.397 1.96c2.606.528 4.249 2.477 5.257 5.661C353.708 27.061 354 31.311 354 36h2z" fill="#000" mask="url(#A)"/><path fill-rule="evenodd" d="M76.551 0c-6.674 0-5.625 8.018.651 10.287 44.741 16.176 81.156 24.525 116.772 25.016 36.036-.186 72.74-8.43 117.928-24.699C318.371 8.274 319.513 0 312.639 0h0H76.551h0z" fill="#b0b0b0"/><path d="M203.545 11.241l-6.48-4.87c-1.766-1.329-4.478-1.257-6.176.157l-5.637 4.725c-1.125.942-2.013 2.876-2.013 4.398v8.338c0 3.081 2.328 5.595 5.197 5.595h12.128c2.868 0 5.197-2.501 5.197-5.582v-8.193c0-1.631-.979-3.637-2.216-4.567zm-8.201 13.509c0 .495-.383.906-.844.906s-.844-.411-.844-.906v-3.625c0-.495.383-.906.844-.906s.844.411.844.906v3.625z" fill="#1c1c1c"/><defs><linearGradient id="B" x1="0" y1="26.824" x2="390" y2="26.824" gradientUnits="userSpaceOnUse"><stop stop-color="#4169e1"/><stop offset=".25" stop-color="#8a2be2"/><stop offset=".48" stop-color="#b0b0b0"/></linearGradient><linearGradient id="C" x1="390" y1="26.824" x2="0" y2="26.824" gradientUnits="userSpaceOnUse"><stop stop-color="#4169e1"/><stop offset=".25" stop-color="#8a2be2"/><stop offset=".48" stop-color="#b0b0b0"/></linearGradient></defs></svg>