<svg width="84" height="111" viewBox="0 0 84 111" fill="none" xmlns="http://www.w3.org/2000/svg">
<path fill-rule="evenodd" clip-rule="evenodd" d="M83 28.6132C83.6548 31.1794 84 33.8472 84 36.5852C84 39.323 83.6548 41.9906 83 44.5567V28.6132ZM20.3486 77L24.8273 83.8271C25.6171 85.031 27.382 85.031 28.1718 83.8271L32.6505 77H20.3486ZM35.8474 77L36.9477 78.6772L39.49 82.5525C40.6747 84.3584 43.3221 84.3584 44.5068 82.5525L47.0507 78.6747L48.1493 77H35.8474ZM51.3477 77L55.8264 83.8271C56.6162 85.031 58.3811 85.031 59.1709 83.8271L63.6496 77H51.3477ZM22.9654 91.4449C22.9654 92.9929 24.4056 94.2474 26.181 94.2474H57.8191C59.5162 94.2474 60.9071 93.101 61.0264 91.6478C61.0319 91.5808 61.0347 91.5132 61.0347 91.4449C61.0347 91.3768 61.0319 91.3092 61.0264 91.2423C60.9071 89.7903 59.5162 88.6439 57.8191 88.6439H26.181C24.4056 88.6439 22.9654 89.8985 22.9654 91.4449ZM60.5386 100.101C60.4615 98.6142 59.0523 97.4285 57.3263 97.4285H26.6738C24.8984 97.4285 23.4582 98.6831 23.4582 100.23C23.4582 101.777 24.8984 103.031 26.6738 103.031H57.3263C59.0523 103.031 60.4615 101.846 60.5386 100.358C60.5408 100.315 60.5419 100.273 60.5419 100.23C60.5419 100.187 60.5408 100.144 60.5386 100.101ZM43.8368 105.398C45.5517 105.398 46.9538 106.568 47.0474 108.042C47.0507 108.094 47.0524 108.146 47.0524 108.199C47.0524 108.252 47.0507 108.304 47.0474 108.356C46.9538 109.83 45.5517 111 43.8368 111H40.1633C38.3879 111 36.9477 109.745 36.9477 108.199C36.9477 106.652 38.3879 105.398 40.1633 105.398H43.8368Z" fill="url(#paint0_linear_208_4663)"/>
<path fill-rule="evenodd" clip-rule="evenodd" d="M42 0C65.196 0 84 16.3797 84 36.5852C84 41.8591 82.7188 46.8725 80.4125 51.4019C80.8652 50.3184 81.2587 49.2108 81.588 48.0812C82.52 44.8829 82.9436 41.4697 82.7459 37.9489C82.3223 29.2948 78.8769 21.2051 72.918 14.9967C71.9861 14.0023 69.4727 11.7716 69.4727 11.7716C64.1634 7.06829 58.0351 3.57439 51.1161 1.85432C46.5057 0.745374 41.759 0.133782 36.8555 0.271709C38.5415 0.092341 40.2584 0 42 0ZM24.6047 3.27563C10.0898 9.03649 3.05176e-05 21.7844 3.05176e-05 36.5852C3.05176e-05 43.5793 2.25346 50.1152 6.16245 55.6719C4.76448 52.8146 3.79188 49.7508 3.27602 46.6299C2.45703 41.5503 2.82416 36.2826 4.51862 31.418C5.53529 28.5154 7.03205 25.7472 9.03716 23.2477C9.96911 22.0383 11.0423 20.9363 12.1154 19.8882C17.9048 14.3786 25.9535 10.9384 34.0586 10.159C42.5873 9.35275 51.7374 11.7178 58.4587 16.9049C63.3161 20.6945 66.6486 26.0159 68.2301 31.7674C68.2865 31.9824 68.6819 33.7831 68.6819 33.7831C68.7048 33.9272 68.7285 34.0713 68.7522 34.2154C68.8744 34.9589 68.9972 35.7054 69.0208 36.4707C69.609 43.6629 67.1823 50.1057 62.5785 55.0491H74.3458C75.0436 55.0491 75.6189 55.3891 75.9713 55.8831C80.7873 48.3727 82.1956 39.0844 79.8653 30.3967C78.1144 23.7583 73.9912 17.7918 68.5407 13.3573C64.6717 10.159 60.4356 7.76706 55.7476 5.83198C47.0494 2.74123 37.4193 2.74123 28.6081 3.14437C27.086 3.26713 25.4931 3.34504 24.6047 3.27563ZM52.4887 71.682L52.9425 69.6935L59.502 59.6946C59.9567 59.0015 60.0807 58.2293 59.9488 57.5166C57.7664 59.3101 55.2456 60.8316 52.4434 62.0299C41.1012 66.9318 30.1424 62.0503 24.5557 56.3134C23.8876 57.2607 23.7635 58.58 24.4948 59.6946L31.0592 69.7011L31.391 71.155C35.2145 72.2885 39.2209 72.8829 43.2651 72.8609C46.3641 72.8271 49.4658 72.4214 52.4887 71.682ZM11.4985 63.5094L24.8273 83.8271C25.6171 85.031 27.382 85.031 28.1718 83.8271L33.3008 76.0087C32.9405 75.932 32.5812 75.8503 32.2229 75.7636C24.3293 73.8988 16.9629 69.5786 11.4985 63.5094ZM35.4571 76.405L36.9477 78.6772L39.49 82.5525C40.6747 84.3584 43.3221 84.3584 44.5068 82.5525L47.0507 78.6747L48.7678 76.0573C48.1355 76.191 47.5134 76.3186 46.8517 76.4086C46.2387 76.5382 45.6075 76.5984 44.9727 76.6589C44.8178 76.6736 44.6628 76.6884 44.5077 76.7042C43.6887 76.7849 42.8698 76.8386 42.0508 76.8386C39.8445 76.8924 37.6381 76.7426 35.4571 76.405ZM50.4635 75.6522L55.8264 83.8271C56.6162 85.031 58.3811 85.031 59.1709 83.8271L73.4418 62.0733C67.4182 68.5854 59.1158 73.3863 50.4635 75.6522ZM9.65986 55.0491H23.4219C23.3611 54.9751 23.3012 54.9011 23.2423 54.8271C18.5826 48.9412 18.2154 40.0452 22.1974 33.5681C27.2525 25.2634 41.8813 22.092 49.0263 29.8592C52.7258 34.0787 53.2624 40.4484 50.4101 45.0979C48.179 48.8337 43.4628 50.8225 39.5373 49.9625C38.8878 49.8281 38.2947 49.6131 37.7581 49.3712C36.8262 48.9412 35.979 48.0543 35.6683 47.0599C35.3012 45.7967 35.6683 44.1035 37.0521 43.5391C37.4193 43.3779 37.8711 43.3779 38.2382 43.566L38.2383 43.566C38.323 43.6198 38.4077 43.6735 38.4077 43.7541C38.4359 43.8885 38.323 43.996 38.2382 44.0498C38.2183 44.0653 38.1985 44.0807 38.1789 44.096C37.5865 44.5564 37.1332 44.9088 37.0239 45.6892C36.8827 47.0599 38.1253 47.8393 39.3679 48.1349C40.6387 48.4574 41.9943 48.35 43.2651 48.0812C44.9878 47.678 46.5128 46.7911 47.6989 45.528C51.5115 41.5234 51.2855 34.5625 47.5295 30.5311C41.2035 24.054 28.8623 26.7685 24.146 33.81L23.8071 34.3744C23.7551 34.4735 23.6896 34.6006 23.6191 34.7376C23.4601 35.0464 23.275 35.4059 23.1576 35.6107C21.2655 40.099 21.209 45.2054 23.1011 49.6938C23.9761 51.7333 25.1985 53.5127 26.6889 55.0491H27.0032C26.9012 55.0491 26.8011 55.0539 26.7028 55.0633C28.5289 56.9418 30.7563 58.4563 33.2396 59.6379C40.2716 62.9705 48.7721 61.6536 55.0698 57.5147C56.0681 56.7998 57.0077 56.0183 57.8853 55.1803C57.6075 55.0953 57.3089 55.0491 56.9936 55.0491H58.0217C67.0608 46.2921 69.3877 31.5088 61.0286 22.0651C47.0776 6.262 18.5543 11.0459 8.64179 30.0742C4.60247 38.2622 5.35845 47.4948 9.65986 55.0491ZM22.9654 91.4449C22.9654 92.9929 24.4056 94.2474 26.181 94.2474H57.8191C59.5162 94.2474 60.9071 93.101 61.0264 91.6478C61.0319 91.5808 61.0347 91.5132 61.0347 91.4449C61.0347 91.3768 61.0319 91.3092 61.0264 91.2423C60.9071 89.7903 59.5162 88.6439 57.8191 88.6439H26.181C24.4056 88.6439 22.9654 89.8985 22.9654 91.4449ZM60.5386 100.101C60.4615 98.6142 59.0523 97.4285 57.3263 97.4285H26.6738C24.8984 97.4285 23.4582 98.6831 23.4582 100.23C23.4582 101.777 24.8984 103.031 26.6738 103.031H57.3263C59.0523 103.031 60.4615 101.846 60.5386 100.358C60.5408 100.315 60.5419 100.273 60.5419 100.23C60.5419 100.187 60.5408 100.144 60.5386 100.101ZM43.8368 105.398C45.5517 105.398 46.9538 106.568 47.0474 108.042C47.0507 108.094 47.0524 108.146 47.0524 108.199C47.0524 108.252 47.0507 108.304 47.0474 108.356C46.9538 109.83 45.5517 111 43.8368 111H40.1633C38.3879 111 36.9477 109.745 36.9477 108.199C36.9477 106.652 38.3879 105.398 40.1633 105.398H43.8368Z" fill="url(#paint1_linear_208_4663)"/>
<defs>
<linearGradient id="paint0_linear_208_4663" x1="52.1743" y1="28.6132" x2="52.1743" y2="111" gradientUnits="userSpaceOnUse">
<stop stop-color="#8A2BE2"/>
<stop offset="1" stop-color="#4169E1"/>
</linearGradient>
<linearGradient id="paint1_linear_208_4663" x1="42" y1="0" x2="42" y2="111" gradientUnits="userSpaceOnUse">
<stop stop-color="#8A2BE2"/>
<stop offset="1" stop-color="#4169E1"/>
</linearGradient>
</defs>
</svg>
