<svg xmlns="http://www.w3.org/2000/svg" xmlns:xlink="http://www.w3.org/1999/xlink" width="1080" zoomAndPan="magnify" viewBox="0 0 810 809.999993" height="1080" preserveAspectRatio="xMidYMid meet" version="1.0"><defs><clipPath id="0bd3e1a817"><path d="M 75.683594 461 L 249 461 L 249 571 L 75.683594 571 Z M 75.683594 461 " clip-rule="nonzero"/></clipPath><clipPath id="ebc84190f1"><path d="M 561 239 L 734.183594 239 L 734.183594 349 L 561 349 Z M 561 239 " clip-rule="nonzero"/></clipPath></defs><path fill="#8a2be2" d="M 420.328125 802.15625 C 421.992188 801.695312 423.691406 801.835938 425.390625 801.957031 C 427.089844 802.070312 428.789062 802.121094 430.425781 801.5625 C 430.683594 796.773438 429.980469 792.019531 429.863281 787.234375 C 429.734375 785.992188 429.851562 784.144531 427.933594 783.792969 C 425.3125 783.742188 422.742188 785.101562 420.117188 784.332031 C 419.910156 781.925781 420.300781 779.519531 420.648438 777.125 C 422.316406 776.988281 423.988281 776.953125 425.65625 776.847656 C 427.328125 776.746094 428.996094 776.644531 430.65625 776.46875 C 431.914062 776.398438 433.027344 775.859375 433.804688 775.089844 C 434.582031 774.304688 435.023438 773.292969 434.949219 772.292969 C 434.890625 769.894531 434.285156 767.324219 436.136719 765.183594 C 438.355469 764.96875 441.164062 765.371094 442.574219 763.496094 C 444.515625 761.859375 443.914062 759.167969 442.027344 757.855469 C 439.757812 756.175781 437.042969 754.945312 434.945312 753.109375 C 433.960938 752.320312 433.050781 751.464844 432.21875 750.5625 C 431.382812 749.65625 430.625 748.679688 429.9375 747.679688 C 428.566406 745.667969 427.480469 743.507812 426.660156 741.28125 C 426.28125 740.109375 426.015625 738.855469 426.246094 737.632812 C 426.851562 736.601562 428.59375 735.878906 428.113281 734.554688 C 427.453125 733.339844 425.917969 732.539062 425.878906 731.066406 C 425.640625 728.800781 425.320312 726.496094 425.578125 724.214844 C 425.914062 722.964844 427.003906 722.609375 428.097656 722.269531 C 428.644531 722.101562 429.195312 721.933594 429.652344 721.660156 C 430.105469 721.378906 430.46875 720.984375 430.640625 720.382812 C 431.238281 718.398438 429.234375 716.246094 430.730469 714.347656 C 431.648438 712.523438 434.460938 713.871094 435.269531 711.976562 C 435.507812 710.699219 435.222656 709.179688 433.972656 708.511719 C 432.503906 707.632812 430.875 707.589844 429.226562 707.609375 C 427.578125 707.617188 425.90625 707.628906 424.40625 706.941406 C 423.265625 693.996094 422.8125 680.988281 421.914062 668.011719 C 421.78125 663.476562 421.964844 658.921875 422.417969 654.429688 C 422.867188 649.925781 423.585938 645.519531 424.519531 641.160156 C 425.453125 636.816406 426.609375 632.597656 427.949219 628.585938 C 429.289062 624.515625 430.8125 620.652344 432.503906 617.035156 C 433.222656 615.214844 433.375 612.988281 433.074219 610.855469 C 432.5 606.863281 431.953125 602.867188 431.484375 598.859375 C 431.320312 597.742188 432.019531 597.109375 432.3125 596.296875 C 432.03125 594.222656 432.296875 591.988281 431.40625 590.089844 C 430.820312 589.859375 430.234375 589.675781 429.652344 589.539062 C 429.070312 589.402344 428.496094 589.3125 427.914062 589.230469 C 426.757812 589.078125 425.609375 589.089844 424.46875 589.226562 C 422.984375 589.101562 421.503906 589.078125 420.035156 589.101562 C 419.300781 589.128906 418.558594 589.082031 417.824219 589.0625 C 417.085938 589.035156 416.347656 588.996094 415.613281 588.925781 L 414.855469 588.960938 L 414.097656 588.96875 L 412.582031 588.988281 L 411.066406 589.019531 L 410.308594 589.042969 L 409.550781 589.039062 C 408.539062 589.035156 407.527344 589.042969 406.519531 589.0625 L 405.757812 589.082031 L 405 589.078125 L 403.484375 589.082031 C 399.433594 589.167969 395.378906 589.207031 391.273438 589.589844 C 390.160156 589.570312 389.046875 589.539062 387.925781 589.597656 C 387.644531 589.613281 387.363281 589.632812 387.082031 589.660156 C 386.800781 589.683594 386.519531 589.703125 386.238281 589.734375 C 385.675781 589.800781 385.113281 589.902344 384.542969 590.050781 C 383.941406 590.140625 383.472656 591.078125 383.425781 591.996094 C 383.230469 594.359375 382.789062 597.121094 384.089844 598.726562 C 383.722656 602.59375 383.328125 606.449219 382.847656 610.296875 C 382.554688 612.832031 382.585938 615.546875 383.464844 617.742188 C 384.265625 619.402344 385.070312 621.019531 385.847656 622.722656 C 386.628906 624.414062 387.386719 626.152344 388.109375 627.929688 C 388.832031 629.722656 389.519531 631.503906 390.152344 633.355469 C 390.785156 635.203125 391.359375 637.097656 391.859375 639.046875 C 393.648438 647 395.078125 655.175781 395.308594 663.515625 C 395.03125 674.636719 394.398438 685.746094 394.003906 696.863281 C 393.832031 700.378906 394.070312 703.925781 393.488281 707.421875 C 390.628906 708.164062 387.605469 707.550781 384.777344 708.476562 C 383.074219 709.070312 382.136719 711.160156 383.105469 712.726562 C 383.972656 713.914062 385.628906 713.5625 386.902344 713.71875 C 388.257812 714.773438 388.128906 716.089844 387.851562 717.460938 C 387.578125 718.832031 387.15625 720.261719 387.984375 721.539062 C 389.828125 722.039062 391.867188 722.359375 393.011719 723.992188 C 392.910156 726.257812 393 728.554688 392.417969 730.773438 C 392.148438 732.550781 390.464844 733.636719 389.601562 735.160156 C 390.589844 736.097656 391.558594 737.050781 392.523438 738.015625 C 392.070312 740.171875 391.484375 742.359375 390.59375 744.429688 C 390.152344 745.46875 389.632812 746.476562 389.015625 747.4375 C 388.402344 748.394531 387.691406 749.289062 386.859375 750.128906 C 384.929688 752.042969 382.960938 753.953125 380.691406 755.609375 C 379.757812 756.300781 378.625 756.796875 377.589844 757.390625 C 376.558594 757.980469 375.625 758.664062 375.101562 759.695312 C 374.484375 761.140625 375.027344 762.605469 376.15625 763.722656 C 377.285156 764.839844 379 765.617188 380.691406 765.609375 C 382.242188 765.480469 383.304688 766.375 384.136719 767.355469 C 383.75 770.339844 382.945312 774.261719 386.664062 776.222656 C 388.515625 776.609375 390.40625 776.804688 392.300781 776.933594 C 393.25 776.996094 394.203125 777.035156 395.152344 777.050781 C 396.105469 777.074219 397.054688 777.074219 398.003906 777.035156 C 399.289062 778.886719 399.242188 781.089844 399.222656 783.152344 C 399.265625 783.972656 398.433594 784.652344 397.507812 784.914062 C 394.917969 784.765625 392.363281 783.804688 389.777344 784.445312 C 389.566406 789.808594 389.261719 795.171875 389.015625 800.527344 C 388.777344 801.636719 390.316406 802.578125 391.679688 802.335938 C 394.011719 802.171875 396.335938 801.84375 398.6875 802.066406 C 399.261719 804.535156 398.066406 806.960938 398.402344 809.433594 C 400.378906 809.851562 402.433594 809.941406 404.464844 809.914062 C 405.871094 809.914062 407.273438 809.894531 408.679688 809.875 L 412.890625 809.824219 C 414.292969 809.800781 415.695312 809.796875 417.097656 809.730469 C 418.5 809.667969 419.898438 809.589844 421.296875 809.492188 C 421.644531 807.003906 420.476562 804.621094 420.328125 802.15625 Z M 420.328125 802.15625 " fill-opacity="1" fill-rule="nonzero"/><path fill="#8a2be2" d="M 281.105469 766.839844 C 281.800781 764.648438 280.203125 762.320312 280.1875 760.082031 C 280.648438 758.070312 281.164062 755.910156 282.90625 754.519531 C 284.015625 754.808594 285.195312 755.042969 286.324219 755.050781 C 287.453125 755.042969 288.53125 754.816406 289.421875 754.222656 C 291.636719 752.707031 293.667969 751.015625 295.667969 749.316406 C 297.386719 749.914062 299.105469 750.507812 300.824219 751.105469 C 302.542969 751.695312 304.269531 752.25 306.042969 752.636719 C 308.058594 752.589844 310.070312 751.523438 310.351562 749.730469 C 310.988281 748.039062 310.261719 746.566406 309.191406 745.164062 C 308.117188 743.769531 306.710938 742.375 305.941406 740.953125 C 304.867188 738.761719 303.742188 736.546875 302.910156 734.292969 C 302.074219 732.027344 301.539062 729.691406 301.59375 727.324219 C 301.511719 724.914062 301.535156 721.070312 304.972656 721.09375 C 305.191406 720.4375 305.410156 719.769531 305.609375 719.097656 C 305.183594 718.335938 304.75 717.5625 304.320312 716.789062 C 305.078125 713.972656 305.355469 710.882812 307.113281 708.460938 C 308.242188 707.929688 309.511719 708.273438 310.703125 708.386719 C 311.335938 708.078125 311.957031 707.769531 312.566406 707.457031 C 313.078125 705.445312 313.5 703.402344 314.421875 701.523438 C 315.75 701.703125 317.0625 701.945312 318.386719 701.972656 C 320.128906 701.894531 321.328125 699.722656 320.363281 698.230469 C 318.714844 694.996094 314.691406 694.699219 311.941406 692.859375 C 311.84375 692.628906 311.648438 692.171875 311.550781 691.941406 C 313.65625 686.898438 315.398438 681.699219 316.828125 676.410156 C 319.023438 669.042969 321.40625 661.734375 323.78125 654.425781 C 325.457031 649.136719 327.84375 644.09375 330.535156 639.324219 C 331.679688 637.058594 332.9375 634.902344 334.285156 632.796875 C 335.636719 630.695312 337.066406 628.675781 338.554688 626.746094 C 340.042969 624.8125 341.585938 622.96875 343.160156 621.210938 C 344.738281 619.433594 346.355469 617.71875 347.976562 616.105469 C 349.78125 614.1875 351.753906 612.640625 353.339844 610.414062 C 354.507812 607.957031 355.207031 605.308594 355.835938 602.632812 C 356.460938 599.957031 357.023438 597.25 357.867188 594.65625 C 358.253906 593.589844 359.171875 593.179688 359.53125 592.09375 C 360.273438 590.171875 360.714844 588.105469 361.148438 586.078125 C 360.652344 585.542969 360.117188 585.148438 359.550781 584.832031 C 359.265625 584.671875 358.976562 584.539062 358.679688 584.414062 C 358.390625 584.277344 358.09375 584.15625 357.792969 584.042969 C 356.597656 583.585938 355.351562 583.257812 354.230469 582.617188 C 353.273438 582.363281 352.335938 582.054688 351.40625 581.71875 C 350.941406 581.554688 350.476562 581.378906 350.015625 581.203125 C 349.558594 581.015625 349.109375 580.808594 348.652344 580.613281 C 347.746094 580.21875 346.84375 579.824219 345.929688 579.460938 C 345.019531 579.085938 344.113281 578.699219 343.179688 578.390625 C 341.136719 577.742188 339.171875 576.882812 337.164062 576.144531 C 336.171875 575.738281 335.1875 575.324219 334.1875 574.941406 L 332.6875 574.378906 C 332.191406 574.175781 331.695312 573.984375 331.191406 573.796875 C 326.863281 572.707031 322.988281 570.519531 318.570312 569.511719 C 317.5625 569.519531 316.566406 568.796875 315.390625 569.714844 C 313.769531 571.777344 312.269531 574.652344 312.796875 576.863281 C 311.628906 579.222656 310.367188 581.539062 309.210938 583.902344 C 307.976562 586.390625 306.226562 588.792969 305.695312 591.484375 C 305.417969 593.648438 305.390625 595.796875 305.628906 597.820312 C 305.960938 600.164062 305.644531 602.769531 305.664062 605.277344 C 305.671875 610.171875 305.378906 615.144531 304.679688 620.234375 C 304.332031 622.769531 303.890625 625.324219 303.347656 627.871094 C 302.808594 630.410156 302.175781 632.933594 301.433594 635.441406 C 300.347656 639.589844 298.308594 643.441406 297.011719 647.53125 C 292.835938 657.375 288.308594 667.074219 284.125 676.917969 C 283.496094 678.464844 282.800781 679.984375 281.855469 681.367188 C 281.148438 681.269531 280.449219 681.117188 279.753906 680.9375 C 279.058594 680.757812 278.378906 680.527344 277.691406 680.324219 C 276.320312 679.90625 274.9375 679.539062 273.492188 679.492188 C 271.746094 679.402344 269.40625 680.648438 269.863281 682.667969 C 270.078125 684.515625 272.152344 684.914062 273.550781 685.59375 C 273.683594 685.878906 273.953125 686.453125 274.085938 686.738281 C 273.4375 688.363281 272.171875 689.625 271.417969 691.183594 C 271.195312 692.125 271.46875 693.027344 272.015625 693.796875 C 272.285156 694.183594 272.625 694.535156 273 694.839844 C 273.378906 695.136719 273.796875 695.382812 274.21875 695.574219 C 274.5 696.148438 274.773438 696.710938 275.046875 697.265625 C 274.128906 699.113281 273.355469 701.03125 272.402344 702.867188 C 271.648438 704.625 269.351562 705.058594 268.492188 706.757812 C 268.902344 707.6875 269.292969 708.621094 269.679688 709.554688 C 268.664062 711.371094 267.402344 713.011719 265.9375 714.480469 C 264.46875 715.949219 262.796875 717.25 260.976562 718.328125 C 259.15625 719.417969 257.175781 720.324219 255.089844 721.046875 C 253.003906 721.765625 250.804688 722.3125 248.582031 722.613281 C 245.429688 722.683594 243.800781 726.152344 245.53125 728.746094 C 246.460938 730.816406 248.488281 731.734375 250.632812 732.53125 C 252.785156 733.324219 255.03125 734.027344 256.5625 735.519531 C 257.691406 738.105469 257.507812 740.847656 258.484375 743.488281 C 258.878906 744.410156 259.617188 745.140625 260.472656 745.765625 C 261.332031 746.386719 262.300781 746.925781 263.136719 747.523438 C 262.59375 750.132812 262.007812 753.203125 258.988281 754.332031 C 256.433594 755.429688 255.027344 757.75 254.796875 760.246094 C 254.972656 763.6875 257.34375 767.53125 261.242188 769.5625 C 262.90625 770.4375 264.679688 771.132812 266.492188 771.660156 C 268.308594 772.1875 270.15625 772.546875 271.996094 772.6875 C 276.59375 773.035156 280.53125 770.449219 281.105469 766.839844 Z M 281.105469 766.839844 " fill-opacity="1" fill-rule="nonzero"/><path fill="#8a2be2" d="M 660.175781 641.785156 C 659.550781 640.621094 659.683594 639.175781 659.855469 637.796875 C 661.925781 624.898438 663.496094 612.148438 663.972656 599.636719 C 663.957031 597.523438 664.480469 595.269531 663.726562 593.3125 C 661.042969 590.5 657.132812 589.476562 653.503906 588.4375 C 651.730469 587.875 650.152344 585.835938 648.148438 586.722656 C 646.851562 587.585938 645.726562 588.699219 644.648438 589.824219 L 642.191406 592.511719 C 641.375 593.402344 640.511719 594.257812 639.671875 595.128906 L 637.144531 597.738281 C 636.308594 598.609375 635.429688 599.449219 634.582031 600.308594 C 633.265625 602.054688 632.125 603.960938 630.515625 605.480469 C 627.890625 603.238281 625.664062 600.605469 623.6875 597.796875 C 620.191406 592.964844 616.636719 588.109375 613.089844 583.320312 C 609.535156 578.523438 605.972656 573.78125 602.34375 569.070312 C 600.183594 566.402344 598.273438 563.265625 595.066406 561.691406 C 593.613281 562.648438 592.242188 563.710938 590.949219 564.839844 C 590.296875 565.398438 589.664062 565.976562 589.003906 566.527344 C 588.335938 567.070312 587.664062 567.605469 586.96875 568.113281 C 586.578125 567.996094 585.808594 567.769531 585.429688 567.65625 C 583.253906 563.992188 581.035156 560.355469 579.007812 556.671875 C 576.96875 552.984375 575.167969 549.289062 573.863281 545.570312 C 572.359375 542.136719 572.238281 538.480469 569.269531 535.4375 C 566.507812 532.742188 563.261719 530.550781 560.285156 528.085938 C 559.402344 527.292969 558.164062 526.605469 557.726562 525.5625 C 556.695312 523.261719 553.972656 520.757812 551.457031 520.113281 C 550.511719 520.648438 549.605469 521.222656 548.804688 521.878906 C 548.398438 522.203125 548.007812 522.546875 547.632812 522.898438 C 547.445312 523.074219 547.257812 523.25 547.078125 523.429688 L 546.511719 523.960938 C 545.769531 524.671875 545.050781 525.410156 544.324219 526.136719 C 543.964844 526.503906 543.585938 526.847656 543.195312 527.1875 C 542.808594 527.527344 542.410156 527.859375 542.003906 528.175781 C 540.703125 529.609375 539.300781 530.953125 537.953125 532.34375 L 533.816406 536.433594 C 533.117188 537.105469 532.425781 537.789062 531.75 538.484375 L 531.242188 539.003906 L 530.722656 539.515625 L 529.695312 540.542969 C 529.355469 540.890625 529.015625 541.242188 528.683594 541.597656 C 528.351562 541.953125 528.023438 542.3125 527.679688 542.65625 C 527 543.355469 526.335938 544.070312 525.6875 544.804688 C 524.972656 545.480469 524.21875 546.113281 523.511719 546.804688 C 522.792969 547.480469 522.128906 548.21875 521.453125 548.945312 C 520.101562 550.394531 518.925781 552.058594 517.886719 553.875 C 519.246094 556.484375 521.390625 559.402344 523.925781 560.402344 C 527.097656 564.179688 529.933594 568.265625 533.328125 571.835938 C 534.109375 572.574219 534.929688 573.144531 535.761719 573.597656 C 536.59375 574.050781 537.449219 574.390625 538.316406 574.695312 C 540.050781 575.300781 541.835938 575.746094 543.5625 576.582031 C 544.796875 577.082031 546.015625 577.582031 547.238281 578.101562 C 548.460938 578.625 549.6875 579.171875 550.917969 579.746094 C 553.371094 580.882812 555.855469 582.148438 558.285156 583.480469 C 560.878906 584.691406 563.417969 586.410156 565.339844 588.792969 C 564.722656 589.613281 564.074219 590.417969 563.371094 591.167969 C 562.671875 591.914062 561.949219 592.648438 561.238281 593.390625 C 560.519531 594.125 559.835938 594.902344 559.140625 595.65625 C 558.453125 596.425781 557.804688 597.226562 557.21875 598.097656 C 556.3125 600.882812 558.886719 604.003906 560.582031 606.410156 C 563.929688 611.433594 567.769531 616.113281 571.859375 620.574219 C 572.136719 622.234375 572.8125 623.871094 573.8125 625.292969 C 575.5 627.660156 577.414062 629.863281 579.535156 631.847656 C 580.589844 632.839844 581.703125 633.777344 582.855469 634.65625 C 584.007812 635.527344 585.203125 636.335938 586.441406 637.074219 C 589.042969 638.425781 589.773438 641.585938 591.933594 643.441406 C 595.808594 647.910156 601.550781 649.898438 606.855469 652.316406 C 610.464844 653.589844 612.664062 656.980469 616.277344 658.324219 C 619.144531 659.5 622.082031 660.628906 625.046875 661.625 C 628.003906 662.621094 631.023438 663.519531 634.101562 664.304688 C 635.46875 664.476562 636.78125 664.785156 638.066406 665.171875 C 639.34375 665.550781 640.585938 665.996094 641.832031 666.453125 C 644.328125 667.363281 646.824219 668.296875 649.558594 668.6875 C 650.25 668.265625 650.941406 667.839844 651.632812 667.414062 C 652.316406 666.976562 652.996094 666.527344 653.671875 666.070312 C 655.023438 665.152344 656.359375 664.199219 657.664062 663.199219 C 658.976562 662.210938 660.207031 661.125 661.402344 659.996094 C 662.59375 658.867188 663.730469 657.675781 664.789062 656.417969 C 665.917969 655.164062 665.789062 653.519531 665.207031 652.332031 C 663.664062 648.722656 661.875 645.273438 660.175781 641.785156 Z M 660.175781 641.785156 " fill-opacity="1" fill-rule="nonzero"/><g clip-path="url(#0bd3e1a817)"><path fill="#8a2be2" d="M 96.671875 568.476562 C 99.035156 568.804688 101.507812 569.148438 103.949219 569.488281 C 106.371094 569.8125 108.785156 570.089844 111.183594 570.199219 C 116.992188 570.578125 122.636719 569.367188 127.996094 567.691406 C 129.566406 567.75 131.152344 567.761719 132.726562 567.699219 C 134.3125 567.632812 135.894531 567.484375 137.445312 567.234375 C 140.554688 566.738281 143.550781 565.816406 146.300781 564.253906 C 148.324219 563.425781 150.152344 562.121094 152.25 561.488281 C 160.933594 559.945312 168.871094 555.195312 175.394531 549.347656 C 179.148438 546.921875 183.257812 545.070312 186.863281 542.386719 C 189.765625 540.226562 193.148438 538.441406 195.261719 535.496094 C 196.523438 533.707031 195.503906 531.917969 194.96875 530.386719 C 194.328125 528.9375 193.695312 527.484375 193.042969 526.042969 C 192.707031 525.328125 192.390625 524.605469 192.074219 523.882812 C 191.75 523.160156 191.417969 522.445312 191.070312 521.738281 C 192.921875 520.589844 195.039062 520.445312 197.042969 519.957031 C 199.054688 519.472656 201.058594 519.085938 203.042969 518.78125 C 205.027344 518.476562 207.035156 518.230469 209 518.050781 C 212.945312 517.6875 216.777344 517.558594 220.582031 517.433594 C 222.21875 517.457031 223.828125 517.609375 225.5625 517.113281 C 228.054688 516.59375 230.230469 514.832031 232.449219 513.484375 C 234.839844 512.03125 237.140625 510.40625 239.59375 509.085938 C 240.449219 508.941406 241.265625 508.941406 242.117188 508.765625 C 244.238281 507.707031 246.402344 506.550781 248.195312 504.992188 C 247.914062 503.914062 247.5 502.902344 247.023438 501.929688 C 246.558594 500.949219 246.03125 500.003906 245.71875 498.945312 C 245.375 497.933594 244.960938 496.960938 244.5 496.011719 C 244.058594 495.054688 243.601562 494.109375 243.109375 493.179688 L 242.367188 491.792969 L 241.664062 490.378906 C 241.199219 489.4375 240.722656 488.5 240.3125 487.535156 C 239.488281 485.679688 238.605469 483.859375 237.808594 482 C 237.402344 481.074219 236.941406 480.171875 236.523438 479.253906 C 236.101562 478.335938 235.65625 477.425781 235.179688 476.53125 C 234.03125 474.027344 233.015625 471.441406 231.824219 468.9375 C 231.191406 467.699219 230.578125 466.457031 229.816406 465.273438 C 229.4375 464.679688 229.015625 464.101562 228.585938 463.527344 C 228.160156 462.953125 227.703125 462.390625 227.199219 461.84375 C 225.371094 462.363281 223.570312 462.972656 221.839844 463.707031 C 221.390625 464.292969 220.9375 464.875 220.476562 465.449219 C 216.070312 466.925781 211.613281 468.261719 207.210938 469.730469 C 205.5625 470.351562 204.300781 471.292969 203.269531 472.375 C 202.25 473.449219 201.453125 474.667969 200.683594 475.847656 C 199.070312 477.585938 197.4375 479.347656 195.851562 481.054688 C 194.230469 482.804688 192.554688 484.558594 190.785156 486.265625 C 187.230469 489.683594 183.417969 492.886719 178.832031 495.414062 C 178.335938 494.808594 177.898438 494.164062 177.484375 493.507812 C 177.082031 492.84375 176.726562 492.15625 176.363281 491.472656 C 176 490.789062 175.640625 490.101562 175.253906 489.425781 C 174.867188 488.75 174.445312 488.089844 174.007812 487.441406 C 173.484375 486.5 171.992188 485.941406 170.710938 486.542969 C 168.738281 487.226562 167.121094 488.5 165.445312 489.628906 C 163.648438 490.867188 161.832031 492.078125 160 493.28125 C 158.128906 494.496094 156.308594 495.679688 154.503906 496.851562 C 150.832031 499.226562 147.144531 501.609375 143.53125 504.113281 C 139.046875 507.03125 134.699219 510.1875 130.167969 513.023438 C 128.675781 514.066406 126.800781 513.953125 125.066406 514.078125 C 123.492188 512.410156 122.402344 510.367188 121.691406 508.179688 C 120.988281 506.0625 120.144531 504.007812 119.238281 501.972656 L 118.566406 500.441406 L 117.933594 498.894531 C 117.519531 497.859375 117.121094 496.816406 116.761719 495.761719 C 115.84375 493.84375 115.128906 491.046875 112.605469 490.808594 C 107.71875 491.117188 102.554688 490.195312 97.898438 492.074219 C 92.785156 506.269531 89.515625 521.550781 86.625 537.195312 C 86.394531 538.53125 85.199219 539.132812 84.398438 539.976562 C 81.457031 542.777344 78.273438 545.3125 75.660156 548.53125 C 75.75 549.503906 75.964844 550.449219 76.257812 551.375 C 76.5625 552.292969 76.945312 553.191406 77.34375 554.089844 C 78.140625 555.878906 79 557.652344 79.503906 559.539062 C 80.382812 561.003906 81.203125 562.507812 82.085938 563.960938 C 82.972656 565.414062 83.898438 566.828125 85.058594 568.066406 C 88.96875 568.40625 92.820312 568.308594 96.671875 568.476562 Z M 96.671875 568.476562 " fill-opacity="1" fill-rule="nonzero"/></g><path fill="#8a2be2" d="M 171.101562 672.601562 C 170.152344 671.339844 169.355469 669.957031 168.832031 668.507812 C 169.984375 668.09375 171.101562 667.390625 172.453125 667.667969 C 173.132812 667.75 173.816406 667.824219 174.492188 667.890625 C 175.179688 667.953125 175.863281 668.003906 176.546875 668.046875 C 177.914062 668.136719 179.273438 668.207031 180.625 668.261719 C 181.972656 668.3125 183.320312 668.363281 184.667969 668.414062 C 186.007812 668.453125 187.355469 668.492188 188.71875 668.53125 C 192.636719 668.339844 196.492188 667.164062 199.03125 664.386719 C 201.042969 662.621094 202.296875 660.214844 202.863281 657.601562 C 203.421875 654.988281 203.285156 652.179688 202.453125 649.613281 C 202.003906 646.800781 205.453125 645.96875 207.378906 644.894531 C 207.152344 643.699219 206.949219 642.519531 206.839844 641.292969 C 208.851562 639.078125 210.554688 636.554688 212.824219 634.589844 C 214.464844 633.152344 216.054688 635.324219 217.761719 635.195312 C 220.214844 635.238281 220.558594 632.195312 221.742188 630.597656 C 222.363281 630.542969 222.976562 630.476562 223.589844 630.40625 C 224.183594 630.78125 224.785156 631.328125 225.453125 631.667969 C 226.117188 632.011719 226.832031 632.175781 227.609375 631.832031 C 228.648438 631.195312 229.535156 629.863281 229.183594 628.644531 C 228.863281 627.011719 227.929688 625.765625 226.871094 624.605469 C 225.8125 623.441406 224.613281 622.371094 223.878906 620.992188 C 227.640625 616.109375 231.757812 611.511719 235.714844 606.796875 C 238.230469 603.6875 241.019531 600.835938 243.949219 598.148438 C 246.882812 595.449219 249.957031 592.917969 253.046875 590.484375 C 255.136719 589.125 257.152344 587.597656 259.183594 586.140625 C 261.21875 584.675781 263.253906 583.304688 265.421875 582.175781 C 267.351562 581.15625 269.277344 580.15625 271.195312 579.230469 C 272.152344 578.769531 273.109375 578.328125 274.0625 577.914062 C 275.015625 577.496094 275.984375 577.085938 276.9375 576.722656 C 279.066406 575.898438 281.308594 574.988281 283.089844 573.039062 C 285.597656 569.941406 287.628906 566.472656 290.128906 563.375 C 291.050781 562.660156 292.144531 562.621094 292.929688 561.539062 C 294.300781 559.890625 295.710938 558.195312 296.648438 556.28125 C 295.140625 554.296875 293.316406 552.71875 291.476562 551.164062 C 283.25 543.117188 275.046875 535.304688 266.351562 527.679688 C 265.574219 526.992188 264.804688 526.28125 263.949219 525.648438 C 263.121094 524.996094 262.222656 524.417969 261.148438 524.015625 C 259.824219 524.945312 258.488281 525.929688 257.414062 527.128906 C 256.285156 528.492188 256.035156 530.117188 254.664062 531.410156 C 252.089844 533.816406 249.214844 535.898438 246.652344 538.3125 C 245.328125 539.703125 244.617188 541.367188 243.753906 542.929688 C 243.148438 546.484375 241.351562 550.164062 239.804688 553.832031 C 237.246094 558.785156 234.535156 563.914062 231.472656 568.863281 C 228.421875 573.792969 224.980469 578.585938 220.808594 582.863281 C 217.121094 587.167969 212.847656 590.925781 208.871094 594.957031 C 206.714844 596.949219 204.894531 599.316406 202.46875 601.007812 C 201.390625 600.277344 200.386719 599.429688 199.347656 598.628906 C 198.324219 597.808594 197.273438 597.035156 196.0625 596.484375 C 194.371094 595.695312 192.246094 594.546875 191.007812 596 C 189.273438 598.023438 192.738281 600.480469 194.289062 601.945312 C 193.265625 603.753906 191.804688 605.277344 189.839844 606.003906 C 189.550781 606.570312 189.269531 607.140625 188.964844 607.691406 C 189.324219 609.035156 189.886719 610.300781 190.484375 611.542969 C 190.378906 611.917969 190.160156 612.675781 190.054688 613.054688 C 187.914062 614.941406 186.148438 617.253906 183.804688 618.894531 C 182.667969 619.171875 181.476562 619.019531 180.304688 618.957031 C 180.039062 619.195312 179.507812 619.679688 179.246094 619.917969 C 179.261719 620.605469 179.277344 621.289062 179.292969 621.949219 C 178.386719 622.730469 177.46875 623.5 176.527344 624.234375 C 175.003906 624.027344 173.421875 623.816406 171.871094 623.777344 C 170.328125 623.738281 168.792969 623.886719 167.339844 624.445312 C 162.179688 625.789062 158.660156 630.570312 157.859375 635.859375 C 157.777344 636.4375 157.726562 637.019531 157.691406 637.605469 C 157.667969 638.183594 157.664062 638.765625 157.675781 639.351562 C 157.703125 640.523438 157.796875 641.703125 157.925781 642.890625 C 158.050781 644.078125 158.207031 645.273438 158.359375 646.46875 C 158.429688 647.070312 158.503906 647.671875 158.574219 648.265625 C 158.648438 648.855469 158.714844 649.449219 158.773438 650.039062 C 159.089844 652.898438 160.441406 656.035156 159.136719 658.640625 C 158.726562 658.6875 157.898438 658.78125 157.488281 658.824219 C 156.410156 658.179688 155.328125 657.527344 154.238281 656.871094 C 153.917969 656.992188 153.292969 657.222656 152.976562 657.339844 C 152.789062 657.710938 152.421875 658.433594 152.234375 658.800781 C 152.574219 659.511719 152.792969 660.292969 153.339844 660.894531 C 155.285156 663.183594 157.441406 665.28125 159.617188 667.351562 C 161.773438 669.441406 164.058594 671.402344 166.269531 673.4375 C 167.324219 674.3125 168.472656 675.644531 169.875 675.238281 C 171.09375 674.996094 170.933594 673.566406 171.101562 672.601562 Z M 171.101562 672.601562 " fill-opacity="1" fill-rule="nonzero"/><path fill="#8a2be2" d="M 710.488281 508.863281 C 711.1875 506.230469 713.53125 504.554688 714.191406 501.898438 C 714.957031 499.1875 716.191406 496.453125 716 493.613281 C 712.667969 492.789062 709.40625 491.742188 706.09375 490.878906 C 702.753906 493.015625 699.554688 489.835938 696.28125 489.296875 C 693.230469 488.664062 689.898438 486.734375 686.816406 488.105469 C 685.15625 489.046875 684.265625 490.535156 683.492188 492.121094 C 682.6875 493.699219 682.015625 495.386719 680.882812 496.703125 C 672.523438 494 664.226562 491.113281 655.882812 488.375 C 649.203125 486.453125 642.855469 483.507812 636.957031 480.03125 C 634.003906 478.289062 631.179688 476.417969 628.457031 474.453125 C 625.71875 472.480469 623.105469 470.421875 620.640625 468.324219 C 619.320312 467.203125 618.078125 466.03125 616.597656 465.039062 C 614.765625 463.667969 613.421875 462.042969 612.109375 460.457031 C 610.5 459.039062 608.753906 457.636719 606.453125 456.898438 C 602.238281 455.585938 597.824219 454.898438 593.640625 453.496094 C 591.957031 451.796875 589.199219 451.074219 586.617188 450.554688 C 585.933594 450.640625 585.488281 450.917969 585.164062 451.269531 C 584.835938 451.617188 584.613281 452.035156 584.417969 452.421875 L 583.058594 455.324219 C 582.597656 456.285156 582.085938 457.226562 581.605469 458.175781 C 581.011719 459.960938 580.304688 461.703125 579.675781 463.46875 C 579.371094 464.355469 579.007812 465.222656 578.675781 466.097656 C 578.339844 466.96875 578.019531 467.847656 577.699219 468.726562 C 576.324219 472.203125 575.054688 475.714844 573.746094 479.222656 C 573.398438 479.878906 573.113281 480.5625 572.871094 481.257812 C 572.613281 481.953125 572.371094 482.652344 572.15625 483.363281 L 571.5 485.496094 C 571.269531 486.207031 570.980469 486.890625 570.671875 487.5625 C 570.3125 488.929688 569.753906 490.234375 569.265625 491.558594 C 569.03125 492.226562 568.835938 492.90625 568.726562 493.628906 C 568.667969 493.988281 568.640625 494.359375 568.625 494.734375 C 568.605469 495.109375 568.613281 495.496094 568.652344 495.894531 C 571.265625 497.464844 574.183594 499.039062 576.925781 498.878906 C 581.023438 500.542969 584.761719 503.160156 588.777344 505.066406 C 591.132812 506.054688 593.339844 506.179688 595.535156 506.085938 C 597.722656 505.984375 599.929688 505.683594 602.164062 505.789062 C 604.628906 505.773438 607.144531 505.851562 609.699219 506.027344 C 610.976562 506.113281 612.257812 506.222656 613.550781 506.355469 C 614.835938 506.488281 616.117188 506.636719 617.40625 506.8125 C 622.566406 507.511719 627.800781 508.59375 632.953125 510.085938 C 638.058594 511.78125 643.003906 513.882812 647.898438 516.101562 C 652.796875 518.316406 657.648438 520.644531 662.601562 522.722656 C 664.785156 523.65625 666.949219 524.621094 669.0625 525.707031 C 669.230469 525.988281 669.570312 526.550781 669.730469 526.835938 C 669.480469 528.128906 669.007812 529.367188 668.589844 530.621094 C 668.378906 531.246094 668.183594 531.875 668.03125 532.515625 C 667.875 533.152344 667.753906 533.800781 667.71875 534.46875 C 667.609375 536.273438 668.6875 538.046875 670.328125 538.910156 C 674.035156 541.152344 677.914062 543.160156 682 544.621094 C 682.476562 545.566406 682.621094 546.878906 683.632812 547.414062 C 686.714844 549.136719 689.964844 550.527344 693.050781 552.246094 C 693.277344 551.835938 693.730469 551.019531 693.957031 550.613281 C 694.535156 550.097656 695.207031 549.660156 695.597656 548.960938 C 696.167969 548.039062 696.71875 547.105469 697.207031 546.136719 C 697.699219 545.171875 698.160156 544.195312 698.613281 543.210938 C 699.511719 541.238281 700.378906 539.253906 701.210938 537.257812 C 700.882812 536.59375 700.558594 535.9375 700.21875 535.285156 L 701.929688 531.402344 C 702.464844 530.09375 703.003906 528.789062 703.539062 527.484375 C 704.253906 527.636719 704.96875 527.792969 705.660156 527.941406 C 706.117188 526.945312 706.5625 525.941406 707 524.933594 C 707.417969 523.917969 707.8125 522.894531 708.199219 521.867188 C 708.585938 520.839844 708.957031 519.808594 709.316406 518.773438 L 709.84375 517.214844 C 710.011719 516.691406 710.164062 516.164062 710.320312 515.640625 L 712.039062 510.539062 Z M 710.488281 508.863281 " fill-opacity="1" fill-rule="nonzero"/><path fill="#8a2be2" d="M 82.53125 398.832031 L 82.402344 404.101562 C 82.238281 406.25 82.246094 408.398438 82.257812 410.550781 C 82.265625 411.625 82.292969 412.703125 82.328125 413.777344 C 82.375 414.851562 82.460938 415.925781 82.546875 417 C 83.234375 417.09375 83.949219 417.191406 84.660156 417.289062 C 84.714844 418.671875 84.773438 420.054688 84.828125 421.441406 C 84.894531 422.824219 85.007812 424.207031 85.085938 425.589844 C 84.554688 426.074219 84.03125 426.566406 83.507812 427.070312 C 83.558594 428.128906 83.609375 429.1875 83.65625 430.25 C 83.726562 431.308594 83.796875 432.367188 83.882812 433.425781 C 83.96875 434.484375 84.066406 435.539062 84.195312 436.59375 C 84.257812 437.121094 84.324219 437.644531 84.410156 438.167969 C 84.5 438.691406 84.601562 439.214844 84.710938 439.734375 C 84.835938 440.507812 85.3125 441.140625 85.671875 441.808594 C 85.742188 442.261719 85.886719 443.164062 85.957031 443.617188 C 89.394531 443.074219 92.871094 442.894531 96.300781 442.347656 C 97.417969 442.199219 97.996094 441.042969 98.753906 440.328125 C 103.023438 440.363281 107.289062 439.824219 111.476562 439.011719 C 113.289062 438.773438 114.878906 437.503906 115.386719 435.808594 C 115.757812 434.550781 115.875 433.261719 115.898438 431.964844 C 115.933594 430.671875 115.914062 429.371094 116.121094 428.097656 C 116.367188 427.890625 116.863281 427.484375 117.125 427.28125 C 119.445312 426.996094 121.773438 426.835938 124.105469 426.710938 C 129.386719 426.472656 134.660156 425.960938 139.9375 425.574219 C 145.214844 425.183594 150.492188 424.917969 155.789062 425.082031 C 166.347656 425.820312 176.550781 428.160156 185.707031 431.546875 C 186.769531 431.875 187.765625 432.296875 188.746094 432.742188 C 189.746094 433.1875 190.722656 433.652344 191.722656 434.070312 C 193.722656 434.902344 195.808594 435.535156 198.324219 435.421875 C 202.683594 435.027344 207.023438 433.878906 211.378906 433.738281 C 212.597656 434.28125 214.023438 434.4375 215.511719 434.382812 C 217 434.332031 218.542969 434.078125 220.019531 433.792969 C 220.714844 432.367188 220.921875 430.960938 220.925781 429.570312 C 220.933594 429.21875 220.921875 428.871094 220.914062 428.523438 L 220.914062 427.476562 C 220.914062 426.78125 220.921875 426.082031 220.984375 425.390625 C 220.824219 423.933594 220.980469 422.457031 221.039062 420.996094 C 221.082031 419.53125 221.183594 418.070312 220.96875 416.617188 C 220.933594 414.773438 220.996094 412.925781 220.941406 411.082031 C 220.90625 410.160156 220.941406 409.238281 220.921875 408.316406 C 220.917969 407.394531 220.886719 406.472656 220.867188 405.550781 C 220.867188 401.859375 220.757812 398.160156 220.820312 394.445312 C 220.695312 393.402344 220.535156 392.359375 220.4375 391.308594 L 220.160156 388.160156 C 220.105469 387.738281 220.042969 387.273438 219.855469 386.839844 C 219.675781 386.402344 219.355469 385.996094 218.753906 385.6875 C 216.191406 385.296875 213.394531 385.039062 211.265625 386.042969 C 206.921875 385.933594 202.609375 385.085938 198.269531 384.878906 C 195.890625 384.785156 193.804688 385.496094 191.835938 386.265625 C 190.089844 387.292969 188.300781 388.339844 186.144531 388.992188 C 184.433594 389.410156 182.894531 390.074219 181.296875 390.667969 C 178.308594 391.777344 175.199219 392.796875 172.003906 393.695312 C 168.8125 394.59375 165.578125 395.371094 162.257812 395.984375 C 155.628906 397.207031 148.773438 397.785156 141.945312 397.308594 C 133.304688 397.023438 124.65625 396.890625 116.015625 396.570312 C 115.410156 394.972656 115.359375 393.195312 115.144531 391.46875 C 114.972656 389.742188 114.644531 388.070312 113.425781 386.648438 C 111.035156 384.347656 107.304688 385.007812 104.269531 384.5625 C 101.058594 383.960938 97.03125 385.8125 94.660156 382.722656 C 91.308594 382.40625 87.9375 382.273438 84.578125 381.914062 C 83.441406 384.464844 83.671875 387.398438 83.457031 390.148438 C 83.171875 392.820312 84.78125 395.148438 84.535156 397.808594 Z M 82.53125 398.832031 " fill-opacity="1" fill-rule="nonzero"/><path fill="#8a2be2" d="M 453.972656 586.09375 C 454.234375 585.171875 454.574219 584.292969 455.269531 584.042969 C 459.503906 581.484375 464.117188 580.09375 468.40625 577.863281 L 471.175781 576.8125 C 472.097656 576.453125 473 576.046875 473.917969 575.675781 C 475.757812 574.949219 477.546875 574.101562 479.382812 573.367188 C 483.007812 571.78125 486.703125 570.351562 490.542969 569.144531 C 491.164062 568.921875 491.777344 568.671875 492.386719 568.414062 C 492.988281 568.140625 493.589844 567.867188 494.210938 567.628906 C 494.832031 567.394531 495.472656 567.195312 496.140625 567.0625 C 496.8125 566.9375 497.488281 566.835938 498.226562 566.859375 C 498.515625 567.105469 499.085938 567.585938 499.371094 567.828125 C 500.515625 570.082031 502.089844 572.609375 501.597656 574.777344 C 503.324219 578.308594 505.441406 581.636719 507.320312 585.085938 C 508.339844 586.921875 508.46875 588.914062 508.40625 590.6875 C 508.160156 593.132812 508.117188 595.695312 508.179688 598.316406 C 508.230469 600.90625 508.390625 603.566406 508.570312 606.234375 C 508.570312 607.960938 508.738281 609.730469 509.023438 611.511719 C 509.304688 613.28125 509.710938 615.0625 510.191406 616.828125 C 511.484375 624.265625 513.851562 631.542969 516.765625 638.648438 C 519.671875 645.757812 523.128906 652.699219 526.398438 659.589844 C 528.152344 659.40625 529.910156 658.605469 531.675781 658.136719 C 533.4375 657.660156 535.1875 657.460938 537.015625 658.566406 C 537.484375 659.738281 538.648438 661.390625 537.347656 662.367188 C 536.871094 662.890625 536.136719 663.246094 535.527344 663.6875 C 534.910156 664.121094 534.410156 664.625 534.410156 665.476562 C 534.960938 667.417969 537.488281 668.710938 536.929688 670.910156 C 536.789062 672.175781 535.382812 672.492188 534.472656 673.042969 C 534.226562 673.910156 533.527344 674.847656 534.0625 675.765625 C 535.265625 678.492188 536.605469 681.160156 537.988281 683.800781 C 539.160156 684.21875 541.25 683.832031 541.59375 685.332031 C 541.292969 687.003906 540.804688 688.753906 541.761719 690.308594 C 544.996094 691.480469 548.675781 692.148438 551.324219 694.488281 C 553.941406 696.515625 555.492188 699.453125 555.980469 702.664062 C 556.480469 705.890625 555.878906 709.320312 554.304688 712.363281 C 553.707031 713.765625 553.035156 715.167969 552.3125 716.535156 C 551.585938 717.894531 550.824219 719.25 550.070312 720.617188 C 549.3125 721.980469 548.566406 723.351562 547.871094 724.746094 C 547.175781 726.136719 546.519531 727.515625 545.972656 728.949219 C 546.191406 729.210938 546.640625 729.757812 546.871094 730.03125 C 549.039062 729.574219 552.300781 728.664062 552.902344 731.21875 C 552.847656 732.175781 552.203125 732.753906 551.382812 733.222656 C 551.382812 733.222656 551.191406 733.308594 550.851562 733.460938 C 550.515625 733.605469 550.03125 733.816406 549.445312 734.070312 C 548.28125 734.570312 546.730469 735.242188 545.175781 735.914062 C 544.398438 736.246094 543.625 736.589844 542.894531 736.886719 C 542.15625 737.183594 541.472656 737.464844 540.882812 737.703125 C 539.707031 738.175781 538.925781 738.492188 538.925781 738.492188 C 537.367188 738.96875 535.832031 739.777344 534.253906 740.332031 C 532.675781 740.894531 531.078125 741.265625 529.457031 740.953125 C 528.367188 738.1875 531.84375 736.835938 533.339844 734.828125 C 531.117188 732.371094 527.222656 732.210938 524.175781 731 C 523.628906 730.792969 523.078125 730.597656 522.523438 730.40625 C 521.964844 730.214844 521.40625 730.019531 520.839844 729.820312 C 519.71875 729.4375 518.59375 729.066406 517.488281 728.667969 C 515.269531 727.867188 513.132812 727.003906 511.199219 725.746094 C 507.484375 722.617188 504.609375 718.09375 505.445312 713.152344 C 505.507812 711.441406 506.011719 709.851562 506.71875 708.308594 C 507.421875 706.761719 508.335938 705.289062 509.238281 703.863281 C 508.921875 702.171875 507.953125 700.796875 506.34375 700.070312 C 506.210938 699.503906 506.078125 698.945312 505.949219 698.386719 C 507.644531 696.457031 507.296875 693.933594 506.265625 691.824219 C 505.367188 690.039062 505.589844 687.160156 503.375 686.449219 C 502.011719 686.25 500.4375 687.007812 499.253906 686.019531 C 497.496094 684.953125 497.980469 682.621094 497.625 680.871094 C 497.164062 680.464844 496.703125 680.0625 496.234375 679.648438 C 494.773438 679.710938 493.066406 680.578125 491.773438 679.464844 C 490.953125 678.855469 490.921875 677.703125 490.558594 676.816406 C 491.539062 675.132812 493.011719 674.132812 494.609375 673.296875 C 496.191406 672.421875 497.898438 671.714844 499.332031 670.679688 C 496.925781 663.949219 494.480469 657.242188 492.136719 650.492188 C 489.191406 643.4375 485.988281 636.378906 481.6875 630.210938 C 480.414062 628.140625 479.066406 626.1875 477.648438 624.273438 C 476.226562 622.367188 474.746094 620.542969 473.230469 618.800781 C 471.714844 617.050781 470.167969 615.410156 468.589844 613.804688 C 467.011719 612.191406 465.417969 610.65625 463.824219 609.199219 C 462.777344 608.328125 461.976562 607.242188 461.335938 606.019531 C 460.691406 604.785156 460.207031 603.425781 459.789062 602.011719 C 458.960938 599.179688 458.390625 596.144531 457.457031 593.503906 C 456.996094 592.40625 455.921875 592.140625 455.558594 590.910156 C 454.980469 589.335938 454.5 587.707031 453.972656 586.09375 Z M 453.972656 586.09375 " fill-opacity="1" fill-rule="nonzero"/><path fill="#8a2be2" d="M 389.625 7.808594 C 387.960938 8.269531 386.261719 8.128906 384.5625 8.007812 C 382.863281 7.894531 381.164062 7.84375 379.527344 8.402344 C 379.269531 13.191406 379.972656 17.945312 380.09375 22.730469 C 380.21875 23.972656 380.101562 25.820312 382.019531 26.171875 C 384.640625 26.222656 387.210938 24.863281 389.835938 25.632812 C 390.042969 28.039062 389.652344 30.445312 389.304688 32.839844 C 387.636719 32.976562 385.964844 33.011719 384.296875 33.117188 C 382.625 33.21875 380.957031 33.320312 379.300781 33.496094 C 378.039062 33.566406 376.925781 34.105469 376.148438 34.875 C 375.371094 35.660156 374.929688 36.671875 375.003906 37.671875 C 375.0625 40.070312 375.667969 42.640625 373.816406 44.78125 C 371.597656 44.996094 368.789062 44.59375 367.378906 46.46875 C 365.4375 48.105469 366.039062 50.796875 367.925781 52.109375 C 370.195312 53.789062 372.910156 55.019531 375.007812 56.855469 C 375.992188 57.644531 376.902344 58.5 377.734375 59.402344 C 378.570312 60.308594 379.328125 61.285156 380.015625 62.285156 C 381.386719 64.296875 382.472656 66.457031 383.292969 68.683594 C 383.671875 69.855469 383.9375 71.109375 383.707031 72.335938 C 383.101562 73.363281 381.359375 74.085938 381.839844 75.410156 C 382.5 76.625 384.035156 77.425781 384.074219 78.898438 C 384.3125 81.164062 384.632812 83.472656 384.375 85.75 C 384.039062 87.003906 382.949219 87.355469 381.855469 87.695312 C 381.308594 87.863281 380.757812 88.03125 380.300781 88.304688 C 379.847656 88.585938 379.484375 88.980469 379.3125 89.582031 C 378.714844 91.566406 380.71875 93.71875 379.222656 95.617188 C 378.304688 97.441406 375.492188 96.09375 374.683594 97.988281 C 374.445312 99.265625 374.730469 100.785156 375.980469 101.453125 C 377.449219 102.332031 379.078125 102.375 380.726562 102.355469 C 382.375 102.347656 384.046875 102.335938 385.546875 103.023438 C 386.6875 115.96875 387.140625 128.976562 388.039062 141.953125 C 388.171875 146.488281 387.988281 151.042969 387.535156 155.539062 C 387.085938 160.042969 386.367188 164.445312 385.433594 168.804688 C 384.5 173.148438 383.34375 177.367188 382.003906 181.382812 C 380.664062 185.449219 379.140625 189.3125 377.449219 192.933594 C 376.730469 194.75 376.578125 196.976562 376.878906 199.109375 C 377.453125 203.101562 378 207.101562 378.46875 211.109375 C 378.632812 212.222656 377.933594 212.855469 377.640625 213.667969 C 377.921875 215.742188 377.65625 217.976562 378.546875 219.875 C 379.132812 220.105469 379.71875 220.289062 380.300781 220.425781 C 380.882812 220.5625 381.457031 220.652344 382.039062 220.738281 C 383.195312 220.886719 384.34375 220.875 385.484375 220.738281 C 386.96875 220.863281 388.449219 220.890625 389.917969 220.863281 C 390.652344 220.839844 391.394531 220.882812 392.128906 220.902344 C 392.867188 220.929688 393.605469 220.96875 394.339844 221.039062 L 395.097656 221.003906 L 395.855469 221 L 397.371094 220.976562 L 398.886719 220.945312 L 399.644531 220.921875 L 400.402344 220.925781 C 401.414062 220.929688 402.425781 220.921875 403.433594 220.902344 L 404.195312 220.882812 L 404.953125 220.886719 L 406.46875 220.882812 C 410.519531 220.796875 414.574219 220.757812 418.679688 220.375 C 419.792969 220.394531 420.90625 220.425781 422.027344 220.367188 C 422.308594 220.351562 422.589844 220.332031 422.871094 220.304688 C 423.152344 220.285156 423.433594 220.261719 423.714844 220.230469 C 424.277344 220.164062 424.839844 220.0625 425.410156 219.914062 C 426.011719 219.824219 426.480469 218.886719 426.527344 217.96875 C 426.722656 215.605469 427.164062 212.84375 425.863281 211.238281 C 426.230469 207.371094 426.625 203.515625 427.105469 199.667969 C 427.398438 197.132812 427.367188 194.417969 426.488281 192.222656 C 425.6875 190.5625 424.882812 188.945312 424.105469 187.242188 C 423.324219 185.550781 422.566406 183.816406 421.84375 182.035156 C 421.121094 180.242188 420.433594 178.460938 419.800781 176.613281 C 419.167969 174.765625 418.59375 172.867188 418.09375 170.921875 C 416.304688 162.964844 414.875 154.789062 414.644531 146.449219 C 414.921875 135.328125 415.554688 124.21875 415.949219 113.101562 C 416.121094 109.585938 415.882812 106.039062 416.464844 102.546875 C 419.324219 101.800781 422.351562 102.414062 425.175781 101.488281 C 426.878906 100.894531 427.816406 98.804688 426.851562 97.238281 C 425.980469 96.050781 424.324219 96.402344 423.050781 96.246094 C 421.695312 95.195312 421.828125 93.875 422.101562 92.503906 C 422.375 91.132812 422.796875 89.707031 421.96875 88.429688 C 420.125 87.925781 418.085938 87.605469 416.941406 85.972656 C 417.042969 83.707031 416.953125 81.410156 417.535156 79.191406 C 417.808594 77.414062 419.488281 76.328125 420.351562 74.808594 C 419.363281 73.867188 418.394531 72.914062 417.429688 71.953125 C 417.882812 69.792969 418.472656 67.605469 419.359375 65.535156 C 419.804688 64.5 420.320312 63.492188 420.9375 62.527344 C 421.550781 61.570312 422.265625 60.675781 423.09375 59.835938 C 425.023438 57.921875 426.992188 56.011719 429.261719 54.355469 C 430.195312 53.664062 431.332031 53.167969 432.363281 52.578125 C 433.394531 51.984375 434.328125 51.300781 434.851562 50.269531 C 435.46875 48.824219 434.925781 47.359375 433.796875 46.242188 C 432.667969 45.125 430.953125 44.347656 429.261719 44.359375 C 427.710938 44.484375 426.648438 43.589844 425.816406 42.609375 C 426.203125 39.625 427.007812 35.703125 423.292969 33.746094 C 421.4375 33.355469 419.550781 33.160156 417.652344 33.03125 C 416.703125 32.96875 415.75 32.933594 414.800781 32.914062 C 413.851562 32.890625 412.898438 32.890625 411.949219 32.933594 C 410.667969 31.078125 410.710938 28.875 410.730469 26.816406 C 410.691406 25.996094 411.519531 25.3125 412.449219 25.050781 C 415.035156 25.199219 417.589844 26.160156 420.175781 25.519531 C 420.386719 20.15625 420.691406 14.796875 420.9375 9.4375 C 421.175781 8.328125 419.636719 7.386719 418.273438 7.628906 C 415.941406 7.792969 413.617188 8.121094 411.265625 7.898438 C 410.691406 5.429688 411.886719 3.003906 411.550781 0.53125 C 409.574219 0.113281 407.523438 0.0273438 405.488281 0.0507812 C 404.082031 0.0507812 402.679688 0.0742188 401.273438 0.09375 L 397.0625 0.140625 C 395.660156 0.167969 394.257812 0.171875 392.855469 0.234375 C 391.453125 0.296875 390.054688 0.375 388.65625 0.472656 C 388.3125 2.964844 389.476562 5.34375 389.625 7.808594 Z M 389.625 7.808594 " fill-opacity="1" fill-rule="nonzero"/><path fill="#8a2be2" d="M 528.847656 43.125 C 528.152344 45.320312 529.75 47.644531 529.765625 49.882812 C 529.304688 51.894531 528.789062 54.054688 527.046875 55.449219 C 525.9375 55.15625 524.757812 54.921875 523.632812 54.914062 C 522.5 54.921875 521.421875 55.148438 520.53125 55.742188 C 518.316406 57.261719 516.285156 58.949219 514.285156 60.648438 C 512.566406 60.050781 510.847656 59.457031 509.132812 58.859375 C 507.414062 58.269531 505.683594 57.714844 503.910156 57.328125 C 501.894531 57.375 499.882812 58.441406 499.601562 60.234375 C 498.964844 61.925781 499.691406 63.398438 500.761719 64.800781 C 501.835938 66.199219 503.242188 67.589844 504.011719 69.015625 C 505.089844 71.203125 506.210938 73.417969 507.046875 75.671875 C 507.878906 77.9375 508.414062 80.273438 508.359375 82.640625 C 508.441406 85.050781 508.417969 88.894531 504.980469 88.871094 C 504.761719 89.527344 504.542969 90.195312 504.347656 90.867188 C 504.773438 91.632812 505.203125 92.402344 505.632812 93.175781 C 504.875 95.992188 504.601562 99.082031 502.839844 101.503906 C 501.710938 102.035156 500.441406 101.691406 499.25 101.582031 C 498.617188 101.886719 498 102.195312 497.386719 102.507812 C 496.875 104.519531 496.453125 106.5625 495.53125 108.441406 C 494.203125 108.261719 492.894531 108.019531 491.566406 107.992188 C 489.824219 108.070312 488.625 110.242188 489.589844 111.734375 C 491.238281 114.96875 495.261719 115.265625 498.015625 117.105469 C 498.113281 117.335938 498.304688 117.792969 498.402344 118.023438 C 496.296875 123.066406 494.554688 128.265625 493.128906 133.554688 C 490.929688 140.921875 488.546875 148.226562 486.171875 155.539062 C 484.496094 160.828125 482.113281 165.871094 479.417969 170.640625 C 478.273438 172.910156 477.019531 175.0625 475.667969 177.167969 C 474.320312 179.269531 472.886719 181.289062 471.398438 183.21875 C 469.910156 185.152344 468.367188 186.996094 466.792969 188.753906 C 465.214844 190.53125 463.597656 192.246094 461.976562 193.859375 C 460.171875 195.777344 458.199219 197.324219 456.613281 199.550781 C 455.445312 202.007812 454.75 204.65625 454.117188 207.332031 C 453.492188 210.007812 452.929688 212.714844 452.085938 215.308594 C 451.699219 216.375 450.78125 216.785156 450.421875 217.871094 C 449.683594 219.792969 449.238281 221.859375 448.804688 223.890625 C 449.300781 224.421875 449.839844 224.820312 450.40625 225.132812 C 450.6875 225.292969 450.980469 225.425781 451.273438 225.554688 C 451.566406 225.6875 451.859375 225.808594 452.160156 225.921875 C 453.355469 226.378906 454.601562 226.707031 455.726562 227.347656 C 456.679688 227.601562 457.621094 227.910156 458.550781 228.246094 C 459.015625 228.410156 459.476562 228.585938 459.9375 228.761719 C 460.394531 228.949219 460.847656 229.15625 461.300781 229.351562 C 462.207031 229.746094 463.113281 230.140625 464.027344 230.503906 C 464.9375 230.878906 465.839844 231.265625 466.773438 231.574219 C 468.820312 232.222656 470.78125 233.082031 472.792969 233.820312 C 473.78125 234.226562 474.765625 234.640625 475.765625 235.023438 L 477.265625 235.585938 C 477.761719 235.789062 478.261719 235.980469 478.761719 236.167969 C 483.089844 237.257812 486.964844 239.445312 491.382812 240.453125 C 492.394531 240.445312 493.390625 241.167969 494.5625 240.25 C 496.183594 238.1875 497.683594 235.3125 497.15625 233.101562 C 498.324219 230.742188 499.589844 228.425781 500.742188 226.0625 C 501.976562 223.574219 503.726562 221.171875 504.257812 218.480469 C 504.535156 216.316406 504.5625 214.167969 504.324219 212.144531 C 503.992188 209.800781 504.308594 207.191406 504.289062 204.6875 C 504.28125 199.789062 504.574219 194.820312 505.273438 189.730469 C 505.621094 187.195312 506.066406 184.640625 506.609375 182.09375 C 507.144531 179.554688 507.777344 177.03125 508.519531 174.523438 C 509.605469 170.375 511.644531 166.523438 512.941406 162.433594 C 517.121094 152.589844 521.644531 142.890625 525.828125 133.046875 C 526.457031 131.5 527.15625 129.976562 528.097656 128.597656 C 528.808594 128.691406 529.507812 128.847656 530.199219 129.027344 C 530.894531 129.207031 531.574219 129.4375 532.261719 129.640625 C 533.636719 130.054688 535.015625 130.425781 536.460938 130.472656 C 538.210938 130.558594 540.546875 129.316406 540.089844 127.292969 C 539.875 125.445312 537.804688 125.046875 536.40625 124.367188 C 536.269531 124.082031 536.003906 123.511719 535.867188 123.226562 C 536.519531 121.601562 537.78125 120.335938 538.535156 118.78125 C 538.761719 117.835938 538.484375 116.933594 537.941406 116.164062 C 537.667969 115.78125 537.328125 115.429688 536.953125 115.125 C 536.574219 114.824219 536.15625 114.578125 535.734375 114.386719 C 535.453125 113.8125 535.179688 113.253906 534.90625 112.699219 C 535.828125 110.851562 536.601562 108.929688 537.550781 107.09375 C 538.304688 105.339844 540.601562 104.90625 541.464844 103.203125 C 541.054688 102.273438 540.664062 101.339844 540.273438 100.40625 C 541.289062 98.59375 542.550781 96.949219 544.015625 95.480469 C 545.484375 94.011719 547.160156 92.714844 548.976562 91.632812 C 550.796875 90.542969 552.777344 89.636719 554.863281 88.917969 C 556.953125 88.195312 559.152344 87.652344 561.371094 87.347656 C 564.523438 87.28125 566.15625 83.808594 564.421875 81.214844 C 563.492188 79.148438 561.464844 78.226562 559.320312 77.429688 C 557.171875 76.640625 554.921875 75.9375 553.390625 74.441406 C 552.265625 71.855469 552.445312 69.113281 551.472656 66.476562 C 551.078125 65.550781 550.339844 64.824219 549.480469 64.199219 C 548.621094 63.578125 547.65625 63.035156 546.816406 62.4375 C 547.359375 59.832031 547.945312 56.757812 550.964844 55.632812 C 553.519531 54.53125 554.925781 52.214844 555.160156 49.714844 C 554.984375 46.277344 552.609375 42.433594 548.710938 40.398438 C 547.046875 39.527344 545.273438 38.828125 543.460938 38.300781 C 541.648438 37.777344 539.796875 37.414062 537.957031 37.277344 C 533.359375 36.929688 529.421875 39.519531 528.847656 43.125 Z M 528.847656 43.125 " fill-opacity="1" fill-rule="nonzero"/><path fill="#8a2be2" d="M 149.777344 168.179688 C 150.402344 169.34375 150.269531 170.789062 150.101562 172.167969 C 148.027344 185.066406 146.457031 197.816406 145.980469 210.328125 C 145.996094 212.441406 145.472656 214.695312 146.226562 216.65625 C 148.910156 219.464844 152.820312 220.488281 156.449219 221.527344 C 158.222656 222.089844 159.800781 224.128906 161.804688 223.242188 C 163.101562 222.378906 164.226562 221.265625 165.308594 220.140625 L 167.761719 217.453125 C 168.578125 216.5625 169.441406 215.707031 170.28125 214.832031 L 172.8125 212.226562 C 173.644531 211.351562 174.523438 210.515625 175.371094 209.652344 C 176.691406 207.910156 177.828125 206.003906 179.4375 204.484375 C 182.0625 206.726562 184.289062 209.359375 186.265625 212.167969 C 189.761719 216.996094 193.316406 221.855469 196.863281 226.644531 C 200.417969 231.441406 203.980469 236.183594 207.609375 240.894531 C 209.769531 243.558594 211.679688 246.699219 214.890625 248.273438 C 216.339844 247.3125 217.710938 246.253906 219.003906 245.125 C 219.65625 244.566406 220.289062 243.988281 220.949219 243.4375 C 221.617188 242.894531 222.289062 242.359375 222.984375 241.851562 C 223.375 241.96875 224.144531 242.195312 224.523438 242.308594 C 226.699219 245.972656 228.917969 249.609375 230.949219 253.292969 C 232.988281 256.980469 234.789062 260.675781 236.089844 264.394531 C 237.59375 267.828125 237.71875 271.484375 240.6875 274.527344 C 243.445312 277.222656 246.691406 279.414062 249.667969 281.878906 C 250.550781 282.671875 251.789062 283.359375 252.226562 284.402344 C 253.257812 286.703125 255.980469 289.207031 258.496094 289.851562 C 259.441406 289.316406 260.347656 288.742188 261.152344 288.085938 C 261.558594 287.761719 261.945312 287.417969 262.320312 287.066406 C 262.511719 286.890625 262.695312 286.714844 262.878906 286.535156 L 263.441406 286.003906 C 264.1875 285.292969 264.902344 284.554688 265.628906 283.828125 C 265.988281 283.460938 266.371094 283.117188 266.757812 282.777344 C 267.148438 282.4375 267.542969 282.105469 267.949219 281.789062 C 269.25 280.355469 270.652344 279.011719 272 277.621094 L 276.136719 273.53125 C 276.835938 272.859375 277.527344 272.175781 278.203125 271.480469 L 278.710938 270.960938 L 279.230469 270.449219 L 280.257812 269.417969 C 280.597656 269.074219 280.9375 268.722656 281.269531 268.367188 C 281.601562 268.011719 281.929688 267.652344 282.273438 267.308594 C 282.953125 266.609375 283.617188 265.894531 284.265625 265.160156 C 284.980469 264.484375 285.734375 263.851562 286.441406 263.160156 C 287.160156 262.484375 287.828125 261.746094 288.5 261.019531 C 289.855469 259.570312 291.027344 257.90625 292.066406 256.085938 C 290.707031 253.480469 288.5625 250.5625 286.027344 249.5625 C 282.855469 245.785156 280.023438 241.699219 276.625 238.128906 C 275.84375 237.390625 275.023438 236.820312 274.191406 236.367188 C 273.359375 235.914062 272.503906 235.574219 271.636719 235.269531 C 269.902344 234.664062 268.121094 234.21875 266.390625 233.382812 C 265.160156 232.882812 263.941406 232.382812 262.71875 231.863281 C 261.492188 231.339844 260.265625 230.792969 259.035156 230.21875 C 256.582031 229.082031 254.097656 227.816406 251.667969 226.484375 C 249.074219 225.273438 246.535156 223.554688 244.617188 221.171875 C 245.230469 220.351562 245.878906 219.546875 246.582031 218.796875 C 247.285156 218.050781 248.003906 217.316406 248.714844 216.574219 C 249.433594 215.839844 250.121094 215.0625 250.8125 214.308594 C 251.5 213.539062 252.148438 212.738281 252.734375 211.867188 C 253.640625 209.082031 251.070312 205.960938 249.371094 203.554688 C 246.023438 198.53125 242.183594 193.851562 238.09375 189.390625 C 237.816406 187.730469 237.140625 186.09375 236.140625 184.671875 C 234.453125 182.304688 232.539062 180.101562 230.421875 178.117188 C 229.363281 177.125 228.25 176.1875 227.097656 175.308594 C 225.945312 174.4375 224.75 173.632812 223.511719 172.890625 C 220.910156 171.539062 220.179688 168.378906 218.019531 166.523438 C 214.144531 162.054688 208.402344 160.066406 203.097656 157.652344 C 199.488281 156.375 197.289062 152.984375 193.675781 151.640625 C 190.808594 150.464844 187.871094 149.335938 184.910156 148.339844 C 181.949219 147.34375 178.929688 146.445312 175.851562 145.660156 C 174.484375 145.488281 173.171875 145.179688 171.886719 144.792969 C 170.613281 144.417969 169.367188 143.96875 168.121094 143.511719 C 165.625 142.605469 163.128906 141.667969 160.394531 141.28125 C 159.707031 141.703125 159.015625 142.125 158.320312 142.550781 C 157.636719 142.988281 156.960938 143.441406 156.28125 143.898438 C 154.929688 144.8125 153.59375 145.765625 152.289062 146.765625 C 150.976562 147.753906 149.746094 148.839844 148.550781 149.96875 C 147.359375 151.097656 146.222656 152.289062 145.164062 153.546875 C 144.035156 154.800781 144.164062 156.445312 144.75 157.632812 C 146.289062 161.242188 148.078125 164.691406 149.777344 168.179688 Z M 149.777344 168.179688 " fill-opacity="1" fill-rule="nonzero"/><g clip-path="url(#ebc84190f1)"><path fill="#8a2be2" d="M 713.28125 241.488281 C 710.921875 241.160156 708.445312 240.816406 706.003906 240.476562 C 703.582031 240.152344 701.167969 239.875 698.769531 239.765625 C 692.960938 239.386719 687.316406 240.597656 681.957031 242.273438 C 680.386719 242.214844 678.804688 242.203125 677.226562 242.265625 C 675.640625 242.332031 674.058594 242.480469 672.507812 242.730469 C 669.398438 243.230469 666.40625 244.152344 663.652344 245.710938 C 661.628906 246.539062 659.800781 247.84375 657.707031 248.476562 C 649.019531 250.019531 641.085938 254.769531 634.558594 260.617188 C 630.804688 263.042969 626.695312 264.894531 623.089844 267.578125 C 620.191406 269.738281 616.808594 271.523438 614.691406 274.46875 C 613.433594 276.257812 614.453125 278.046875 614.984375 279.578125 C 615.625 281.027344 616.257812 282.480469 616.910156 283.921875 C 617.246094 284.636719 617.5625 285.359375 617.882812 286.082031 C 618.203125 286.804688 618.539062 287.519531 618.882812 288.226562 C 617.03125 289.375 614.914062 289.519531 612.910156 290.003906 C 610.898438 290.492188 608.898438 290.875 606.910156 291.179688 C 604.925781 291.484375 602.921875 291.730469 600.953125 291.910156 C 597.011719 292.277344 593.179688 292.40625 589.375 292.53125 C 587.734375 292.507812 586.125 292.355469 584.390625 292.851562 C 581.898438 293.371094 579.722656 295.132812 577.503906 296.480469 C 575.113281 297.933594 572.816406 299.558594 570.359375 300.875 C 569.503906 301.023438 568.6875 301.023438 567.835938 301.199219 C 565.714844 302.257812 563.550781 303.414062 561.757812 304.972656 C 562.042969 306.050781 562.453125 307.0625 562.929688 308.035156 C 563.398438 309.011719 563.925781 309.960938 564.234375 311.019531 C 564.582031 312.03125 564.996094 313.003906 565.453125 313.953125 C 565.894531 314.90625 566.351562 315.855469 566.84375 316.785156 L 567.589844 318.171875 L 568.292969 319.582031 C 568.753906 320.527344 569.230469 321.460938 569.640625 322.429688 C 570.464844 324.28125 571.347656 326.105469 572.144531 327.964844 C 572.550781 328.886719 573.011719 329.789062 573.429688 330.710938 C 573.851562 331.628906 574.296875 332.539062 574.777344 333.433594 C 575.925781 335.9375 576.9375 338.523438 578.128906 341.027344 C 578.761719 342.265625 579.375 343.507812 580.136719 344.691406 C 580.515625 345.285156 580.9375 345.863281 581.367188 346.4375 C 581.792969 347.011719 582.253906 347.574219 582.757812 348.121094 C 584.582031 347.601562 586.382812 346.992188 588.113281 346.257812 C 588.566406 345.671875 589.015625 345.089844 589.476562 344.515625 C 593.882812 343.039062 598.339844 341.703125 602.742188 340.234375 C 604.390625 339.613281 605.652344 338.671875 606.683594 337.589844 C 607.703125 336.515625 608.503906 335.296875 609.269531 334.117188 C 610.882812 332.378906 612.519531 330.617188 614.101562 328.910156 C 615.722656 327.160156 617.398438 325.40625 619.167969 323.699219 C 622.722656 320.277344 626.535156 317.078125 631.121094 314.550781 C 631.617188 315.15625 632.058594 315.800781 632.46875 316.457031 C 632.871094 317.121094 633.226562 317.808594 633.589844 318.492188 C 633.953125 319.175781 634.3125 319.863281 634.699219 320.539062 C 635.085938 321.214844 635.507812 321.875 635.945312 322.523438 C 636.46875 323.46875 637.960938 324.023438 639.242188 323.421875 C 641.214844 322.742188 642.832031 321.464844 644.507812 320.335938 C 646.304688 319.097656 648.121094 317.886719 649.957031 316.683594 C 651.828125 315.46875 653.644531 314.285156 655.449219 313.113281 C 659.121094 310.738281 662.8125 308.355469 666.421875 305.851562 C 670.90625 302.933594 675.253906 299.777344 679.789062 296.941406 C 681.277344 295.898438 683.152344 296.011719 684.886719 295.886719 C 686.460938 297.554688 687.554688 299.601562 688.261719 301.785156 C 688.964844 303.902344 689.808594 305.957031 690.714844 307.992188 L 691.386719 309.523438 L 692.019531 311.070312 C 692.433594 312.105469 692.832031 313.148438 693.191406 314.203125 C 694.109375 316.121094 694.824219 318.917969 697.347656 319.15625 C 702.234375 318.847656 707.398438 319.769531 712.054688 317.886719 C 717.167969 303.695312 720.4375 288.414062 723.328125 272.769531 C 723.558594 271.433594 724.753906 270.832031 725.554688 269.988281 C 728.496094 267.1875 731.679688 264.652344 734.292969 261.433594 C 734.203125 260.460938 733.988281 259.515625 733.695312 258.589844 C 733.390625 257.671875 733.007812 256.773438 732.609375 255.875 C 731.8125 254.085938 730.953125 252.3125 730.449219 250.425781 C 729.570312 248.960938 728.75 247.457031 727.867188 246.003906 C 726.980469 244.550781 726.054688 243.136719 724.894531 241.898438 C 720.984375 241.558594 717.132812 241.660156 713.28125 241.488281 Z M 713.28125 241.488281 " fill-opacity="1" fill-rule="nonzero"/></g><path fill="#8a2be2" d="M 638.855469 137.367188 C 639.800781 138.625 640.597656 140.007812 641.125 141.457031 C 639.972656 141.875 638.851562 142.574219 637.503906 142.296875 C 636.820312 142.214844 636.140625 142.140625 635.460938 142.074219 C 634.773438 142.015625 634.089844 141.964844 633.40625 141.917969 C 632.042969 141.828125 630.683594 141.761719 629.328125 141.703125 C 627.980469 141.652344 626.636719 141.601562 625.285156 141.550781 C 623.945312 141.511719 622.597656 141.472656 621.234375 141.433594 C 617.316406 141.625 613.460938 142.804688 610.925781 145.578125 C 608.910156 147.347656 607.660156 149.75 607.09375 152.367188 C 606.53125 154.980469 606.667969 157.785156 607.503906 160.355469 C 607.953125 163.164062 604.503906 163.996094 602.574219 165.070312 C 602.804688 166.265625 603.003906 167.449219 603.113281 168.671875 C 601.101562 170.886719 599.398438 173.410156 597.128906 175.375 C 595.488281 176.8125 593.902344 174.644531 592.191406 174.769531 C 589.738281 174.726562 589.394531 177.773438 588.214844 179.367188 C 587.589844 179.425781 586.980469 179.488281 586.363281 179.558594 C 585.769531 179.183594 585.171875 178.640625 584.503906 178.300781 C 583.835938 177.957031 583.125 177.789062 582.34375 178.132812 C 581.308594 178.773438 580.417969 180.101562 580.769531 181.320312 C 581.09375 182.953125 582.023438 184.199219 583.085938 185.359375 C 584.140625 186.527344 585.339844 187.59375 586.074219 188.972656 C 582.316406 193.855469 578.199219 198.453125 574.238281 203.167969 C 571.722656 206.277344 568.933594 209.128906 566.007812 211.820312 C 563.070312 214.515625 559.996094 217.046875 556.910156 219.480469 C 554.820312 220.839844 552.804688 222.367188 550.769531 223.828125 C 548.734375 225.289062 546.699219 226.664062 544.535156 227.789062 C 542.601562 228.808594 540.675781 229.8125 538.757812 230.734375 C 537.800781 231.195312 536.84375 231.636719 535.890625 232.054688 C 534.9375 232.46875 533.972656 232.878906 533.015625 233.242188 C 530.886719 234.066406 528.644531 234.980469 526.863281 236.925781 C 524.359375 240.023438 522.324219 243.492188 519.824219 246.589844 C 518.902344 247.304688 517.8125 247.34375 517.023438 248.425781 C 515.65625 250.074219 514.246094 251.769531 513.304688 253.6875 C 514.8125 255.671875 516.636719 257.246094 518.476562 258.804688 C 526.703125 266.851562 534.90625 274.660156 543.601562 282.289062 C 544.378906 282.976562 545.152344 283.683594 546.003906 284.316406 C 546.832031 284.96875 547.730469 285.550781 548.804688 285.953125 C 550.128906 285.023438 551.464844 284.039062 552.542969 282.839844 C 553.667969 281.472656 553.917969 279.847656 555.292969 278.558594 C 557.867188 276.148438 560.742188 274.066406 563.300781 271.652344 C 564.628906 270.261719 565.335938 268.597656 566.199219 267.035156 C 566.808594 263.480469 568.601562 259.800781 570.148438 256.136719 C 572.710938 251.179688 575.421875 246.050781 578.480469 241.105469 C 581.53125 236.171875 584.972656 231.378906 589.144531 227.101562 C 592.832031 222.796875 597.105469 219.042969 601.082031 215.011719 C 603.238281 213.019531 605.058594 210.648438 607.484375 208.960938 C 608.5625 209.6875 609.566406 210.539062 610.605469 211.339844 C 611.628906 212.15625 612.679688 212.929688 613.890625 213.484375 C 615.585938 214.269531 617.707031 215.417969 618.949219 213.964844 C 620.679688 211.941406 617.214844 209.488281 615.664062 208.019531 C 616.691406 206.210938 618.148438 204.6875 620.117188 203.960938 C 620.402344 203.394531 620.6875 202.824219 620.988281 202.273438 C 620.628906 200.929688 620.066406 199.664062 619.46875 198.421875 C 619.574219 198.046875 619.792969 197.289062 619.898438 196.914062 C 622.039062 195.023438 623.804688 192.710938 626.148438 191.070312 C 627.285156 190.792969 628.476562 190.945312 629.652344 191.011719 C 629.914062 190.769531 630.445312 190.289062 630.710938 190.046875 C 630.691406 189.363281 630.675781 188.679688 630.660156 188.019531 C 631.566406 187.234375 632.484375 186.46875 633.425781 185.730469 C 634.949219 185.941406 636.535156 186.148438 638.082031 186.1875 C 639.628906 186.230469 641.160156 186.078125 642.613281 185.523438 C 647.773438 184.175781 651.292969 179.394531 652.09375 174.109375 C 652.175781 173.53125 652.230469 172.945312 652.261719 172.363281 C 652.285156 171.78125 652.289062 171.199219 652.277344 170.613281 C 652.25 169.441406 652.15625 168.261719 652.03125 167.074219 C 651.902344 165.886719 651.746094 164.691406 651.59375 163.496094 C 651.523438 162.894531 651.449219 162.292969 651.378906 161.699219 C 651.304688 161.109375 651.238281 160.515625 651.179688 159.925781 C 650.863281 157.070312 649.511719 153.929688 650.816406 151.324219 C 651.226562 151.277344 652.054688 151.1875 652.46875 151.140625 C 653.542969 151.789062 654.628906 152.4375 655.714844 153.09375 C 656.035156 152.976562 656.660156 152.742188 656.976562 152.625 C 657.164062 152.257812 657.53125 151.535156 657.71875 151.167969 C 657.378906 150.453125 657.160156 149.671875 656.613281 149.070312 C 654.667969 146.78125 652.515625 144.6875 650.339844 142.613281 C 648.179688 140.523438 645.894531 138.566406 643.6875 136.527344 C 642.628906 135.65625 641.480469 134.320312 640.082031 134.726562 C 638.859375 134.972656 639.023438 136.398438 638.855469 137.367188 Z M 638.855469 137.367188 " fill-opacity="1" fill-rule="nonzero"/><path fill="#8a2be2" d="M 99.464844 301.101562 C 98.765625 303.734375 96.425781 305.410156 95.761719 308.066406 C 94.996094 310.78125 93.761719 313.511719 93.953125 316.351562 C 97.285156 317.179688 100.546875 318.226562 103.859375 319.085938 C 107.199219 316.953125 110.398438 320.128906 113.671875 320.667969 C 116.726562 321.300781 120.054688 323.230469 123.136719 321.859375 C 124.796875 320.921875 125.6875 319.429688 126.460938 317.84375 C 127.265625 316.265625 127.9375 314.578125 129.070312 313.261719 C 137.429688 315.964844 145.726562 318.851562 154.070312 321.589844 C 160.75 323.515625 167.097656 326.457031 172.996094 329.933594 C 175.949219 331.675781 178.773438 333.546875 181.496094 335.515625 C 184.234375 337.484375 186.847656 339.542969 189.3125 341.640625 C 190.632812 342.761719 191.875 343.933594 193.355469 344.925781 C 195.1875 346.296875 196.53125 347.921875 197.84375 349.507812 C 199.453125 350.925781 201.199219 352.328125 203.5 353.066406 C 207.714844 354.378906 212.128906 355.066406 216.3125 356.46875 C 217.996094 358.167969 220.753906 358.894531 223.335938 359.410156 C 224.019531 359.324219 224.464844 359.046875 224.789062 358.699219 C 225.117188 358.347656 225.339844 357.929688 225.535156 357.546875 L 226.894531 354.640625 C 227.355469 353.679688 227.867188 352.738281 228.347656 351.789062 C 228.941406 350.003906 229.648438 348.261719 230.277344 346.496094 C 230.578125 345.609375 230.945312 344.746094 231.273438 343.871094 C 231.609375 342.996094 231.933594 342.117188 232.253906 341.238281 C 233.628906 337.761719 234.898438 334.25 236.207031 330.742188 C 236.554688 330.085938 236.839844 329.40625 237.082031 328.707031 C 237.339844 328.011719 237.578125 327.3125 237.796875 326.601562 L 238.453125 324.46875 C 238.683594 323.757812 238.972656 323.078125 239.28125 322.402344 C 239.640625 321.035156 240.199219 319.730469 240.6875 318.410156 C 240.921875 317.742188 241.117188 317.058594 241.226562 316.335938 C 241.285156 315.980469 241.3125 315.605469 241.328125 315.230469 C 241.347656 314.855469 241.339844 314.472656 241.300781 314.070312 C 238.6875 312.5 235.769531 310.925781 233.027344 311.085938 C 228.925781 309.421875 225.191406 306.804688 221.175781 304.902344 C 218.816406 303.914062 216.609375 303.785156 214.414062 303.882812 C 212.230469 303.980469 210.023438 304.285156 207.785156 304.175781 C 205.324219 304.191406 202.804688 304.113281 200.253906 303.941406 C 198.976562 303.851562 197.691406 303.742188 196.402344 303.609375 C 195.117188 303.480469 193.835938 303.332031 192.546875 303.15625 C 187.386719 302.453125 182.152344 301.371094 177 299.882812 C 171.894531 298.1875 166.949219 296.085938 162.054688 293.867188 C 157.15625 291.652344 152.304688 289.320312 147.347656 287.246094 C 145.167969 286.3125 143 285.34375 140.890625 284.261719 C 140.722656 283.980469 140.382812 283.414062 140.222656 283.128906 C 140.46875 281.835938 140.941406 280.597656 141.363281 279.347656 C 141.574219 278.722656 141.769531 278.09375 141.917969 277.449219 C 142.078125 276.8125 142.199219 276.167969 142.230469 275.496094 C 142.339844 273.691406 141.265625 271.921875 139.621094 271.058594 C 135.914062 268.816406 132.035156 266.808594 127.953125 265.347656 C 127.476562 264.398438 127.332031 263.085938 126.316406 262.554688 C 123.238281 260.832031 119.988281 259.441406 116.898438 257.722656 C 116.671875 258.128906 116.21875 258.945312 115.992188 259.351562 C 115.417969 259.867188 114.742188 260.308594 114.355469 261.007812 C 113.785156 261.929688 113.230469 262.863281 112.742188 263.828125 C 112.253906 264.792969 111.789062 265.773438 111.339844 266.757812 C 110.441406 268.726562 109.570312 270.714844 108.742188 272.710938 C 109.066406 273.375 109.394531 274.03125 109.734375 274.679688 L 108.023438 278.5625 C 107.484375 279.871094 106.949219 281.179688 106.410156 282.484375 C 105.699219 282.328125 104.984375 282.171875 104.292969 282.023438 C 103.835938 283.023438 103.386719 284.027344 102.953125 285.035156 C 102.53125 286.046875 102.140625 287.074219 101.753906 288.097656 C 101.367188 289.125 100.996094 290.15625 100.636719 291.195312 L 100.105469 292.75 C 99.941406 293.273438 99.789062 293.800781 99.632812 294.328125 L 97.914062 299.425781 Z M 99.464844 301.101562 " fill-opacity="1" fill-rule="nonzero"/><path fill="#8a2be2" d="M 727.421875 411.136719 L 727.550781 405.863281 C 727.714844 403.714844 727.707031 401.566406 727.695312 399.414062 C 727.6875 398.339844 727.664062 397.265625 727.625 396.1875 C 727.578125 395.113281 727.492188 394.039062 727.40625 392.96875 C 726.71875 392.871094 726.003906 392.773438 725.292969 392.675781 C 725.238281 391.292969 725.179688 389.910156 725.125 388.523438 C 725.058594 387.140625 724.949219 385.757812 724.867188 384.375 C 725.398438 383.890625 725.921875 383.398438 726.445312 382.894531 C 726.394531 381.835938 726.347656 380.777344 726.296875 379.71875 C 726.226562 378.65625 726.15625 377.597656 726.070312 376.539062 C 725.984375 375.484375 725.886719 374.425781 725.757812 373.371094 C 725.695312 372.847656 725.628906 372.320312 725.542969 371.796875 C 725.453125 371.273438 725.351562 370.75 725.242188 370.230469 C 725.117188 369.457031 724.640625 368.824219 724.28125 368.15625 C 724.210938 367.703125 724.066406 366.800781 723.996094 366.347656 C 720.5625 366.890625 717.082031 367.070312 713.652344 367.617188 C 712.535156 367.765625 711.960938 368.925781 711.199219 369.636719 C 706.929688 369.601562 702.664062 370.140625 698.476562 370.953125 C 696.664062 371.195312 695.074219 372.460938 694.566406 374.160156 C 694.195312 375.414062 694.078125 376.707031 694.054688 378 C 694.019531 379.292969 694.039062 380.59375 693.832031 381.867188 C 693.589844 382.078125 693.089844 382.480469 692.828125 382.683594 C 690.507812 382.972656 688.179688 383.128906 685.847656 383.253906 C 680.566406 383.492188 675.292969 384.003906 670.015625 384.390625 C 664.742188 384.78125 659.464844 385.046875 654.167969 384.886719 C 643.605469 384.144531 633.402344 381.804688 624.246094 378.421875 C 623.183594 378.09375 622.1875 377.667969 621.207031 377.222656 C 620.207031 376.777344 619.230469 376.3125 618.230469 375.894531 C 616.230469 375.0625 614.144531 374.429688 611.628906 374.542969 C 607.269531 374.9375 602.933594 376.085938 598.574219 376.226562 C 597.355469 375.683594 595.933594 375.53125 594.441406 375.582031 C 592.953125 375.632812 591.410156 375.886719 589.9375 376.171875 C 589.242188 377.597656 589.03125 379.003906 589.027344 380.394531 C 589.023438 380.746094 589.03125 381.09375 589.039062 381.441406 L 589.039062 382.488281 C 589.039062 383.1875 589.03125 383.882812 588.96875 384.574219 C 589.128906 386.03125 588.976562 387.507812 588.917969 388.972656 C 588.875 390.433594 588.773438 391.894531 588.984375 393.347656 C 589.019531 395.191406 588.957031 397.042969 589.011719 398.882812 C 589.050781 399.804688 589.011719 400.726562 589.03125 401.648438 C 589.035156 402.570312 589.066406 403.492188 589.085938 404.417969 C 589.089844 408.105469 589.195312 411.804688 589.136719 415.519531 C 589.257812 416.5625 589.417969 417.609375 589.515625 418.65625 L 589.792969 421.804688 C 589.847656 422.230469 589.914062 422.691406 590.097656 423.128906 C 590.277344 423.5625 590.597656 423.96875 591.199219 424.277344 C 593.761719 424.667969 596.558594 424.925781 598.6875 423.921875 C 603.03125 424.03125 607.34375 424.878906 611.683594 425.089844 C 614.0625 425.179688 616.152344 424.46875 618.117188 423.699219 C 619.863281 422.675781 621.652344 421.625 623.808594 420.976562 C 625.519531 420.554688 627.058594 419.890625 628.65625 419.296875 C 631.644531 418.1875 634.753906 417.167969 637.949219 416.269531 C 641.140625 415.371094 644.375 414.59375 647.695312 413.984375 C 654.324219 412.757812 661.183594 412.179688 668.007812 412.65625 C 676.648438 412.945312 685.296875 413.074219 693.9375 413.398438 C 694.542969 414.992188 694.59375 416.769531 694.808594 418.496094 C 694.980469 420.222656 695.3125 421.894531 696.527344 423.316406 C 698.917969 425.617188 702.648438 424.957031 705.683594 425.402344 C 708.894531 426.003906 712.921875 424.152344 715.292969 427.242188 C 718.644531 427.5625 722.019531 427.695312 725.375 428.054688 C 726.511719 425.5 726.28125 422.570312 726.5 419.816406 C 726.78125 417.144531 725.171875 414.816406 725.421875 412.15625 Z M 727.421875 411.136719 " fill-opacity="1" fill-rule="nonzero"/><path fill="#8a2be2" d="M 355.980469 223.871094 C 355.71875 224.792969 355.378906 225.671875 354.683594 225.921875 C 350.449219 228.480469 345.835938 229.871094 341.546875 232.101562 L 338.777344 233.152344 C 337.855469 233.511719 336.953125 233.917969 336.035156 234.289062 C 334.195312 235.015625 332.40625 235.863281 330.570312 236.597656 C 326.945312 238.183594 323.25 239.613281 319.410156 240.820312 C 318.789062 241.042969 318.175781 241.292969 317.570312 241.550781 C 316.964844 241.824219 316.363281 242.097656 315.742188 242.335938 C 315.121094 242.570312 314.480469 242.769531 313.8125 242.902344 C 313.140625 243.027344 312.464844 243.128906 311.726562 243.105469 C 311.441406 242.863281 310.871094 242.378906 310.582031 242.136719 C 309.4375 239.882812 307.863281 237.355469 308.355469 235.1875 C 306.628906 231.65625 304.511719 228.328125 302.632812 224.878906 C 301.613281 223.042969 301.484375 221.050781 301.546875 219.277344 C 301.792969 216.835938 301.835938 214.269531 301.773438 211.648438 C 301.722656 209.058594 301.5625 206.398438 301.382812 203.730469 C 301.382812 202.003906 301.21875 200.234375 300.929688 198.453125 C 300.648438 196.683594 300.246094 194.902344 299.765625 193.136719 C 298.46875 185.695312 296.101562 178.421875 293.1875 171.316406 C 290.28125 164.207031 286.824219 157.265625 283.554688 150.375 C 281.800781 150.558594 280.042969 151.359375 278.277344 151.828125 C 276.515625 152.304688 274.769531 152.503906 272.9375 151.394531 C 272.46875 150.222656 271.304688 148.574219 272.609375 147.59375 C 273.082031 147.074219 273.816406 146.71875 274.425781 146.277344 C 275.042969 145.84375 275.542969 145.339844 275.542969 144.484375 C 274.996094 142.546875 272.464844 141.25 273.023438 139.054688 C 273.164062 137.789062 274.570312 137.46875 275.484375 136.921875 C 275.726562 136.050781 276.425781 135.117188 275.890625 134.195312 C 274.6875 131.46875 273.347656 128.800781 271.964844 126.164062 C 270.792969 125.746094 268.703125 126.132812 268.363281 124.632812 C 268.660156 122.957031 269.148438 121.207031 268.191406 119.65625 C 264.957031 118.480469 261.277344 117.8125 258.628906 115.476562 C 256.011719 113.449219 254.460938 110.511719 253.972656 107.296875 C 253.472656 104.074219 254.074219 100.644531 255.648438 97.597656 C 256.246094 96.195312 256.917969 94.796875 257.640625 93.429688 C 258.367188 92.066406 259.128906 90.710938 259.886719 89.347656 C 260.640625 87.984375 261.386719 86.613281 262.082031 85.21875 C 262.777344 83.828125 263.433594 82.449219 263.980469 81.011719 C 263.761719 80.75 263.3125 80.207031 263.085938 79.933594 C 260.917969 80.390625 257.652344 81.300781 257.050781 78.746094 C 257.105469 77.789062 257.75 77.210938 258.570312 76.738281 C 258.570312 76.738281 258.761719 76.652344 259.101562 76.503906 C 259.441406 76.355469 259.925781 76.148438 260.507812 75.894531 C 261.671875 75.390625 263.222656 74.722656 264.777344 74.050781 C 265.554688 73.71875 266.328125 73.375 267.0625 73.074219 C 267.796875 72.777344 268.480469 72.5 269.070312 72.261719 C 270.246094 71.785156 271.03125 71.46875 271.03125 71.46875 C 272.585938 70.996094 274.121094 70.1875 275.699219 69.628906 C 277.277344 69.066406 278.875 68.695312 280.496094 69.007812 C 281.585938 71.773438 278.113281 73.125 276.613281 75.132812 C 278.835938 77.59375 282.730469 77.75 285.777344 78.960938 C 286.324219 79.167969 286.875 79.367188 287.433594 79.558594 C 287.988281 79.75 288.546875 79.945312 289.113281 80.140625 C 290.234375 80.523438 291.359375 80.898438 292.46875 81.296875 C 294.683594 82.097656 296.820312 82.957031 298.753906 84.214844 C 302.46875 87.34375 305.34375 91.871094 304.507812 96.808594 C 304.445312 98.523438 303.941406 100.109375 303.234375 101.652344 C 302.53125 103.199219 301.617188 104.675781 300.714844 106.101562 C 301.03125 107.789062 302 109.167969 303.609375 109.890625 C 303.742188 110.460938 303.875 111.015625 304.003906 111.578125 C 302.3125 113.503906 302.65625 116.03125 303.6875 118.136719 C 304.585938 119.925781 304.363281 122.804688 306.578125 123.515625 C 307.945312 123.714844 309.515625 122.953125 310.699219 123.941406 C 312.457031 125.011719 311.972656 127.34375 312.328125 129.089844 C 312.789062 129.496094 313.25 129.902344 313.71875 130.3125 C 315.179688 130.253906 316.890625 129.382812 318.179688 130.5 C 319 131.109375 319.03125 132.257812 319.394531 133.148438 C 318.414062 134.828125 316.941406 135.828125 315.34375 136.664062 C 313.761719 137.539062 312.054688 138.25 310.621094 139.285156 C 313.027344 146.011719 315.472656 152.71875 317.816406 159.46875 C 320.761719 166.523438 323.964844 173.582031 328.265625 179.75 C 329.539062 181.820312 330.886719 183.773438 332.304688 185.6875 C 333.726562 187.59375 335.207031 189.417969 336.722656 191.160156 C 338.238281 192.910156 339.785156 194.550781 341.363281 196.160156 C 342.941406 197.773438 344.535156 199.304688 346.128906 200.761719 C 347.175781 201.632812 347.976562 202.71875 348.617188 203.941406 C 349.261719 205.175781 349.746094 206.539062 350.164062 207.953125 C 350.992188 210.78125 351.5625 213.816406 352.496094 216.457031 C 352.957031 217.554688 354.03125 217.820312 354.394531 219.050781 C 354.972656 220.628906 355.453125 222.257812 355.980469 223.871094 Z M 355.980469 223.871094 " fill-opacity="1" fill-rule="nonzero"/></svg>